if (_typeface_js && _typeface_js.loadFace) _typeface_js.loadFace({"glyphs":{"¦":{"x_min":258.40625,"x_max":430.671875,"ha":688,"o":"m 430 1090 l 430 499 l 258 499 l 258 1090 l 430 1090 m 430 283 l 430 -307 l 258 -307 l 258 283 l 430 283 "},"₢":{"x_min":23.0625,"x_max":822.6875,"ha":907,"o":"m 634 820 l 260 820 l 260 668 l 231 668 l 231 264 l 266 264 l 266 177 l 341 177 l 341 564 l 480 564 l 480 518 l 507 518 l 507 570 l 733 570 l 733 437 l 554 437 l 554 360 l 480 360 l 480 139 l 587 139 l 587 218 l 661 218 l 661 347 l 822 347 l 822 60 l 663 60 l 663 -16 l 333 -16 l 333 10 l 158 10 l 158 118 l 79 118 l 79 229 l 23 229 l 23 678 l 60 678 l 60 864 l 89 864 l 89 1009 l 672 1009 l 672 941 l 758 941 l 758 857 l 820 857 l 820 661 l 693 661 l 693 720 l 641 720 l 641 809 l 634 809 l 634 820 "},"Á":{"x_min":75.28125,"x_max":986.8125,"ha":1044,"o":"m 447 895 l 447 723 l 410 723 l 410 604 l 668 604 l 668 646 l 587 646 l 587 758 l 554 758 l 554 895 l 447 895 m 414 873 l 414 997 l 651 997 l 651 855 l 706 855 l 706 740 l 753 740 l 753 593 l 805 593 l 805 489 l 855 489 l 855 430 l 859 430 l 859 324 l 901 324 l 901 234 l 935 234 l 935 123 l 986 123 l 986 0 l 780 0 l 780 106 l 745 106 l 745 211 l 715 211 l 715 289 l 695 289 l 695 273 l 368 273 l 368 263 l 318 263 l 318 132 l 295 132 l 295 2 l 75 2 l 75 191 l 126 191 l 126 341 l 181 341 l 181 460 l 235 460 l 235 579 l 293 579 l 293 731 l 368 731 l 368 873 l 414 873 m 456 1062 l 453 1062 l 456 1065 l 456 1182 l 561 1182 l 561 1275 l 653 1275 l 653 1322 l 798 1322 l 798 1171 l 698 1171 l 698 1098 l 607 1098 l 607 1053 l 456 1053 l 456 1062 "},"Î":{"x_min":9.5,"x_max":440.171875,"ha":446,"o":"m 118 0 l 118 999 l 316 999 l 316 0 l 118 0 m 117 1174 l 117 1091 l 9 1091 l 9 1209 l 75 1209 l 75 1291 l 121 1291 l 121 1395 l 333 1395 l 333 1293 l 394 1293 l 394 1193 l 440 1193 l 440 1091 l 329 1091 l 329 1180 l 242 1180 l 242 1256 l 208 1256 l 208 1174 l 117 1174 "},"e":{"x_min":56.296875,"x_max":550.03125,"ha":617,"o":"m 225 522 l 225 433 l 400 433 l 400 522 l 225 522 m 225 133 l 550 133 l 550 0 l 58 0 l 58 72 l 56 72 l 56 678 l 225 678 l 225 676 l 543 676 l 543 324 l 400 324 l 400 326 l 225 326 l 225 133 "},"»":{"x_min":16.28125,"x_max":526.984375,"ha":640,"o":"m 441 259 l 441 203 l 387 203 l 387 157 l 330 157 l 330 117 l 261 117 l 261 179 l 303 179 l 311 189 l 311 243 l 353 243 l 358 249 l 358 305 l 392 305 l 392 332 l 384 332 l 384 375 l 347 375 l 347 429 l 301 429 l 301 469 l 269 469 l 269 555 l 330 555 l 330 507 l 387 507 l 387 474 l 438 474 l 438 421 l 526 421 l 526 332 l 526 332 l 526 259 l 442 259 l 441 259 m 196 254 l 196 202 l 142 202 l 142 156 l 86 156 l 86 116 l 16 116 l 16 178 l 63 178 l 67 182 l 67 242 l 113 242 l 113 304 l 147 304 l 147 331 l 128 331 l 128 374 l 102 374 l 102 428 l 56 428 l 56 468 l 24 468 l 24 554 l 86 554 l 86 509 l 89 506 l 142 506 l 142 474 l 193 474 l 193 420 l 282 420 l 282 335 l 285 333 l 281 329 l 281 259 l 202 259 l 196 254 "},"∆":{"x_min":-4.0625,"x_max":733.15625,"ha":733,"o":"m 354 787 l 337 787 l 337 718 l 316 718 l 316 579 l 272 579 l 272 497 l 235 497 l 235 383 l 200 383 l 200 260 l 166 260 l 166 214 l 137 214 l 137 153 l 97 153 l 97 87 l 568 87 l 568 187 l 537 187 l 537 276 l 470 276 l 470 379 l 435 379 l 435 503 l 418 503 l 418 597 l 373 597 l 373 722 l 354 722 l 354 787 m 314 832 l 314 990 l 431 990 l 431 826 l 457 826 l 457 745 l 497 745 l 497 628 l 537 628 l 537 533 l 581 533 l 581 449 l 630 449 l 630 343 l 680 343 l 680 198 l 699 198 l 699 87 l 733 87 l 733 -6 l -4 -6 l -4 87 l 37 87 l 37 179 l 66 179 l 66 254 l 97 254 l 97 356 l 133 356 l 133 464 l 179 464 l 179 550 l 204 550 l 204 659 l 249 659 l 249 760 l 283 760 l 283 832 l 314 832 "},"₨":{"x_min":70.53125,"x_max":1481.234375,"ha":1618,"o":"m 249 833 l 249 575 l 564 575 l 564 833 l 249 833 m 387 436 l 249 436 l 249 -8 l 70 -8 l 70 997 l 770 997 l 770 439 l 610 439 l 610 379 l 704 379 l 704 267 l 762 267 l 762 147 l 828 147 l 828 0 l 634 0 l 634 113 l 562 113 l 562 240 l 484 240 l 484 350 l 387 350 l 387 436 m 1401 574 l 1445 574 l 1445 446 l 1287 446 l 1287 490 l 1228 490 l 1228 516 l 1121 516 l 1121 489 l 1089 489 l 1089 449 l 1164 449 l 1164 423 l 1247 423 l 1247 392 l 1439 392 l 1439 331 l 1481 331 l 1481 74 l 1414 74 l 1414 0 l 1239 0 l 1239 26 l 981 26 l 981 102 l 929 102 l 929 276 l 1098 276 l 1098 186 l 1249 186 l 1249 151 l 1292 151 l 1292 253 l 1222 253 l 1222 270 l 1115 270 l 1115 313 l 1045 313 l 1045 326 l 925 326 l 925 583 l 977 583 l 977 636 l 1096 636 l 1096 678 l 1237 678 l 1237 657 l 1401 657 l 1401 574 "},"ò":{"x_min":18.984375,"x_max":641.59375,"ha":685,"o":"m 196 476 l 196 173 q 197 170 196 172 l 441 170 l 441 485 l 204 485 l 204 476 l 196 476 m 77 0 l 77 72 l 18 72 l 18 579 l 72 579 l 72 680 l 572 680 l 572 554 l 641 554 l 641 80 l 537 80 l 537 0 l 77 0 m 215 851 l 113 851 l 113 991 l 311 991 l 311 900 l 392 900 l 392 819 l 497 819 l 497 711 l 301 711 l 301 781 l 215 781 l 215 851 "},"^":{"x_min":145.8125,"x_max":520.875,"ha":688,"o":"m 250 1011 l 250 1037 l 254 1037 l 254 1130 l 406 1130 l 406 1034 l 434 1034 l 434 973 l 461 973 l 461 903 l 493 903 l 493 830 l 520 830 l 520 786 l 383 786 l 383 823 l 357 823 l 357 890 l 352 890 l 352 965 l 335 965 l 335 1015 l 324 1015 l 324 967 l 312 967 l 312 917 l 285 917 l 285 853 l 265 853 l 265 780 l 145 780 l 145 893 l 197 893 q 200 897 198 895 l 200 935 l 216 935 q 217 937 217 936 l 217 1008 l 250 1008 q 250 1011 250 1009 "},"«":{"x_min":115.96875,"x_max":599.546875,"ha":640,"o":"m 200 251 l 116 251 l 116 324 l 115 324 l 115 413 l 204 413 l 204 466 l 255 466 l 255 499 l 311 499 l 311 547 l 373 547 l 373 461 l 341 461 l 341 421 l 295 421 l 295 366 l 258 366 l 258 324 l 250 324 l 250 297 l 284 297 l 284 241 l 289 235 l 330 235 l 330 181 l 339 170 l 381 170 l 381 109 l 311 109 l 311 149 l 255 149 l 255 195 l 201 195 l 201 250 l 200 251 m 413 250 l 334 250 l 334 321 l 330 324 l 333 327 l 333 412 l 421 412 l 421 465 l 473 465 l 473 498 l 526 498 l 529 501 l 529 546 l 591 546 l 591 460 l 559 460 l 559 420 l 513 420 l 513 366 l 486 366 l 486 323 l 467 323 l 467 296 l 502 296 l 502 234 l 548 234 l 548 174 l 552 170 l 599 170 l 599 108 l 529 108 l 529 148 l 473 148 l 473 194 l 419 194 l 419 246 l 413 250 "},"∙":{"x_min":68.5,"x_max":276.71875,"ha":345,"o":"m 276 585 l 276 366 l 68 366 l 68 585 l 276 585 "},"í":{"x_min":87.484375,"x_max":451.015625,"ha":349,"o":"m 87 0 l 87 680 l 254 680 l 254 0 l 87 0 m 109 797 l 105 797 l 109 800 l 109 917 l 214 917 l 214 1011 l 305 1011 l 305 1058 l 451 1058 l 451 907 l 351 907 l 351 834 l 259 834 l 259 788 l 109 788 l 109 797 "},"ˆ":{"x_min":125.46875,"x_max":556.140625,"ha":695,"o":"m 233 772 l 233 689 l 125 689 l 125 807 l 191 807 l 191 889 l 237 889 l 237 993 l 449 993 l 449 891 l 510 891 l 510 791 l 556 791 l 556 689 l 445 689 l 445 778 l 358 778 l 358 853 l 324 853 l 324 772 l 233 772 "},"µ":{"x_min":81.390625,"x_max":735.1875,"ha":800,"o":"m 243 43 l 243 -299 l 81 -299 l 81 918 l 243 918 l 243 317 l 303 317 l 303 208 l 493 208 l 493 267 l 554 267 l 554 911 l 735 911 l 735 18 l 554 18 l 554 53 l 526 53 l 526 0 l 285 0 l 285 43 l 243 43 "},"’":{"x_min":81.390625,"x_max":260.4375,"ha":378,"o":"m 260 986 l 260 704 l 229 704 l 229 687 l 81 687 l 81 918 l 87 918 l 87 1093 l 233 1093 l 233 986 l 260 986 "},"-":{"x_min":40.015625,"x_max":411.6875,"ha":454,"o":"m 411 388 l 411 254 l 40 254 l 40 388 l 411 388 "},"Q":{"x_min":79.359375,"x_max":1066.171875,"ha":1095,"o":"m 708 838 l 354 838 l 354 762 l 287 762 l 287 640 l 245 640 l 245 529 l 276 529 l 276 383 l 333 383 l 333 306 l 453 306 l 453 245 l 668 245 l 668 252 l 545 252 l 545 370 l 716 370 l 716 314 l 756 314 l 756 366 l 822 366 l 822 516 l 824 516 l 824 623 l 782 623 l 782 744 l 708 744 l 708 838 m 924 63 l 791 63 l 791 152 l 760 152 l 760 116 l 381 116 l 381 150 l 270 150 l 270 203 l 128 203 l 128 340 l 79 340 l 79 529 l 83 529 l 83 680 l 128 680 l 128 779 l 147 779 l 147 900 l 216 900 l 216 997 l 918 997 l 918 895 l 964 895 l 964 773 l 978 773 l 978 644 l 1013 644 l 1013 482 l 988 482 l 988 340 l 933 340 l 933 236 l 853 236 l 853 215 l 1009 215 l 1009 124 l 1066 124 l 1066 0 l 924 0 l 924 63 "},"M":{"x_min":97.671875,"x_max":1151.625,"ha":1219,"o":"m 460 0 l 460 187 l 400 187 l 400 377 l 341 377 l 341 564 l 276 564 l 276 799 l 259 799 l 259 0 l 97 0 l 97 997 l 411 997 l 411 832 l 473 832 l 473 622 l 541 622 l 541 418 l 605 418 l 605 225 l 623 225 l 623 223 l 647 223 l 647 510 l 745 510 l 745 816 l 846 816 l 846 997 l 1151 997 l 1151 0 l 990 0 l 990 782 l 970 782 l 970 610 l 916 610 l 916 433 l 857 433 q 855 427 855 430 l 855 128 l 745 128 q 740 118 743 123 l 740 0 l 460 0 "},"{":{"x_min":147.859375,"x_max":626.671875,"ha":688,"o":"m 451 1001 l 451 547 l 452 547 l 452 348 l 448 348 l 448 -90 l 615 -90 l 615 -168 l 368 -168 l 368 -111 l 328 -111 l 328 348 l 147 348 l 147 547 l 325 547 l 325 1031 l 379 1031 l 379 1087 l 626 1087 l 626 1001 l 452 1001 q 451 1001 451 1001 "},"¼":{"x_min":60.359375,"x_max":1070.234375,"ha":1158,"o":"m 786 221 l 786 206 l 776 206 l 776 187 l 861 187 l 861 286 l 857 286 l 857 275 l 828 275 l 828 274 l 828 228 l 794 228 l 794 221 l 786 221 m 861 444 l 861 507 l 985 507 l 985 187 l 1070 187 l 1070 94 l 985 94 l 985 8 l 861 8 l 861 94 l 642 94 l 642 187 l 660 187 l 660 279 l 717 279 l 717 380 l 804 380 l 804 444 l 861 444 m 213 927 l 213 990 l 365 990 l 365 487 l 213 487 l 213 780 l 182 780 l 182 738 l 60 738 l 60 889 l 150 889 l 150 927 l 213 927 m 252 4 l 250 0 l 171 0 l 171 4 l 160 4 l 160 217 l 272 217 l 272 399 l 406 399 l 406 485 l 481 485 l 481 570 l 544 570 l 544 752 l 664 752 l 664 889 l 758 889 l 758 999 l 942 999 l 942 826 l 861 826 l 861 678 l 745 678 l 745 527 l 641 527 l 641 375 l 592 375 l 592 282 l 477 282 l 477 187 l 394 187 l 394 4 l 252 4 "},"#":{"x_min":31.203125,"x_max":889.15625,"ha":906,"o":"m 285 227 l 285 611 l 33 611 l 33 800 l 285 800 l 285 972 l 388 972 l 388 800 l 543 800 l 543 975 l 650 975 l 650 800 l 886 800 l 886 611 l 650 611 l 650 227 l 889 227 l 889 106 l 650 106 l 650 1 l 543 1 l 543 106 l 388 106 l 388 -1 l 285 -1 l 285 106 l 31 106 l 31 227 l 285 227 m 376 611 l 376 227 l 540 227 l 540 611 l 376 611 "},"Ê":{"x_min":50.1875,"x_max":760.28125,"ha":781,"o":"m 172 860 l 172 618 l 689 618 l 689 422 l 172 422 l 172 124 l 760 124 l 760 -6 l 52 -6 l 52 860 l 50 860 l 50 995 l 721 995 l 721 860 l 172 860 m 297 1116 l 297 1032 l 189 1032 l 189 1151 l 255 1151 l 255 1233 l 301 1233 l 301 1337 l 514 1337 l 514 1235 l 574 1235 l 574 1135 l 620 1135 l 620 1032 l 510 1032 l 510 1122 l 422 1122 l 422 1197 l 389 1197 l 389 1116 l 297 1116 "},")":{"x_min":10.859375,"x_max":344.53125,"ha":514,"o":"m 344 948 l 344 -23 l 263 -23 l 263 -267 l 10 -267 l 10 28 l 161 28 l 161 830 l 29 830 l 29 1096 l 199 1096 l 199 948 l 344 948 "},"Å":{"x_min":75.28125,"x_max":986.8125,"ha":1044,"o":"m 447 895 l 447 723 l 410 723 l 410 604 l 668 604 l 668 646 l 587 646 l 587 758 l 554 758 l 554 895 l 447 895 m 486 1142 l 486 1043 l 587 1043 l 587 1142 l 486 1142 m 651 959 l 651 855 l 706 855 l 706 740 l 753 740 l 753 593 l 805 593 l 805 489 l 855 489 l 855 430 l 859 430 l 859 324 l 901 324 l 901 234 l 935 234 l 935 123 l 986 123 l 986 0 l 780 0 l 780 106 l 745 106 l 745 211 l 715 211 l 715 289 l 695 289 l 695 273 l 368 273 l 368 263 l 318 263 l 318 132 l 295 132 l 295 2 l 75 2 l 75 191 l 126 191 l 126 341 l 181 341 l 181 460 l 235 460 l 235 579 l 293 579 l 293 731 l 368 731 l 368 873 l 414 873 l 414 959 l 393 959 l 393 1251 l 676 1251 l 676 959 l 651 959 "},"¸":{"x_min":229.234375,"x_max":533.078125,"ha":695,"o":"m 303 12 l 395 12 l 395 -56 l 529 -56 l 529 -118 l 533 -118 l 533 -245 l 510 -245 l 510 -287 l 229 -287 l 229 -191 l 418 -191 l 418 -147 l 303 -147 l 303 12 "},"a":{"x_min":16.953125,"x_max":576.484375,"ha":625,"o":"m 50 0 l 50 81 l 23 81 l 23 379 l 118 379 l 118 411 l 252 411 l 252 452 l 400 452 l 400 529 l 182 529 q 181 527 181 528 l 181 452 l 16 452 l 16 610 l 93 610 l 93 678 l 552 678 l 552 583 l 576 583 l 576 0 l 400 0 l 400 8 l 322 8 l 322 0 l 50 0 m 396 171 q 400 178 398 174 l 400 285 l 254 285 l 254 244 l 174 244 l 174 141 l 309 141 l 309 171 l 396 171 "},"=":{"x_min":45.4375,"x_max":648.375,"ha":688,"o":"m 645 657 l 645 518 l 48 518 l 48 657 l 645 657 m 648 450 l 648 305 l 45 305 l 45 450 l 648 450 "},"˚":{"x_min":208.21875,"x_max":491.71875,"ha":695,"o":"m 301 901 l 301 801 l 402 801 l 402 901 l 301 901 m 491 1009 l 491 718 l 208 718 l 208 1009 l 491 1009 "},"ú":{"x_min":35.265625,"x_max":718.234375,"ha":718,"o":"m 526 0 l 485 0 l 485 -2 l 35 -2 l 35 662 l 180 662 l 180 191 l 431 191 l 431 680 l 604 680 l 604 147 l 718 147 l 718 -2 l 526 -2 l 526 0 m 217 731 l 214 731 l 217 734 l 217 851 l 322 851 l 322 944 l 414 944 l 414 991 l 559 991 l 559 841 l 459 841 l 459 767 l 368 767 l 368 722 l 217 722 l 217 731 "},"¯":{"x_min":10.859375,"x_max":446.265625,"ha":454,"o":"m 446 1005 l 446 872 l 10 872 l 10 1005 l 446 1005 "},"Z":{"x_min":50.1875,"x_max":731.125,"ha":762,"o":"m 418 841 l 81 841 l 81 1037 l 678 1037 l 678 841 l 647 841 l 647 695 l 550 695 l 550 514 l 466 514 l 466 356 l 362 356 l 362 214 l 276 214 l 276 149 l 731 149 l 731 -35 l 50 -35 l 50 149 l 91 149 l 91 287 l 183 287 l 183 426 l 266 426 l 266 564 l 326 564 l 326 710 l 418 710 l 418 841 "},"u":{"x_min":35.265625,"x_max":745.359375,"ha":789,"o":"m 545 0 l 503 0 l 503 -2 l 35 -2 l 35 662 l 185 662 l 185 191 l 446 191 l 446 680 l 626 680 l 626 147 l 745 147 l 745 -2 l 545 -2 l 545 0 "},"k":{"x_min":33.234375,"x_max":651.765625,"ha":696,"o":"m 476 273 q 479 268 478 270 l 552 268 l 552 156 q 552 155 552 155 l 651 155 l 651 0 l 439 0 l 439 85 l 358 85 l 358 185 l 268 185 l 268 285 l 216 285 l 216 0 l 33 0 l 33 997 l 216 997 l 216 570 l 284 570 l 284 653 l 377 653 l 377 766 l 614 766 l 614 522 l 451 522 l 451 482 l 395 482 l 395 412 l 476 412 l 476 273 "},"Ù":{"x_min":58.328125,"x_max":949.515625,"ha":1018,"o":"m 254 283 l 753 283 l 753 997 l 949 997 l 949 0 l 58 0 l 58 995 l 60 995 l 60 997 l 254 997 l 254 283 m 335 1184 l 233 1184 l 233 1324 l 432 1324 l 432 1233 l 513 1233 l 513 1152 l 618 1152 l 618 1044 l 421 1044 l 421 1114 l 335 1114 l 335 1184 "},"⅝":{"x_min":68.5,"x_max":1070.234375,"ha":1151,"o":"m 252 4 l 249 0 l 171 0 l 171 4 l 160 4 l 160 217 l 271 217 l 271 399 l 406 399 l 406 485 l 481 485 l 481 570 l 543 570 l 543 752 l 663 752 l 663 889 l 758 889 l 758 999 l 941 999 l 941 826 l 860 826 l 860 678 l 744 678 l 744 527 l 640 527 l 640 375 l 591 375 l 591 282 l 477 282 l 477 187 l 394 187 l 394 4 l 252 4 m 892 318 l 892 240 l 993 240 l 993 318 l 892 318 m 892 153 l 892 65 l 993 65 l 993 153 l 892 153 m 756 413 l 1070 413 l 1070 -4 l 756 -4 l 756 413 m 70 986 l 70 995 l 440 995 l 440 894 l 170 894 l 170 763 l 437 763 l 437 664 l 436 664 l 436 526 l 70 526 l 70 582 l 362 582 l 362 664 l 68 664 l 68 986 l 70 986 "},"¢":{"x_min":58.328125,"x_max":572.421875,"ha":650,"o":"m 383 714 l 383 780 l 499 780 l 499 697 l 468 697 l 468 630 l 492 630 l 492 572 l 556 572 l 556 447 l 432 447 l 432 491 l 413 491 l 413 455 l 379 455 l 379 335 l 335 335 l 335 247 l 391 247 l 391 339 l 572 339 l 572 193 l 482 193 l 482 153 l 309 153 l 309 143 l 253 143 l 253 72 l 216 72 l 216 0 l 137 0 l 137 139 l 187 139 l 187 172 l 149 172 l 149 208 l 58 208 l 58 516 l 99 516 l 99 614 l 181 614 l 181 630 l 357 630 l 357 618 l 363 618 l 363 714 l 383 714 m 309 468 l 309 520 l 233 520 l 233 433 l 185 433 l 185 291 l 237 291 l 237 387 l 285 387 l 285 468 l 309 468 "},"é":{"x_min":56.296875,"x_max":559.53125,"ha":617,"o":"m 225 522 l 225 433 l 400 433 l 400 522 l 225 522 m 225 133 l 550 133 l 550 0 l 58 0 l 58 72 l 56 72 l 56 678 l 225 678 l 225 676 l 543 676 l 543 324 l 400 324 l 400 326 l 225 326 l 225 133 m 217 731 l 214 731 l 217 734 l 217 851 l 322 851 l 322 944 l 414 944 l 414 991 l 559 991 l 559 841 l 459 841 l 459 767 l 368 767 l 368 722 l 217 722 l 217 731 "},"B":{"x_min":12.203125,"x_max":726.375,"ha":827,"o":"m 198 869 l 198 594 l 489 594 l 489 807 l 426 807 l 426 869 l 198 869 m 198 435 l 198 137 l 387 137 l 387 237 l 497 237 l 497 435 l 198 435 m 196 2 l 12 2 l 12 993 l 122 993 l 122 997 l 520 997 l 520 943 l 620 943 l 620 853 l 697 853 l 697 510 l 726 510 l 726 208 l 724 208 l 724 73 l 564 73 l 564 0 l 196 0 l 196 2 "},"…":{"x_min":70.53125,"x_max":1214.015625,"ha":1389,"o":"m 280 202 l 280 -12 l 70 -12 l 70 202 l 280 202 m 1214 210 l 1214 -21 l 997 -21 l 997 210 l 1214 210 m 747 185 l 747 -8 l 533 -8 l 533 185 l 747 185 "},"H":{"x_min":79.359375,"x_max":758.25,"ha":806,"o":"m 79 0 l 79 997 l 210 997 l 210 626 l 624 626 l 624 997 l 758 997 l 758 0 l 624 0 l 624 441 l 210 441 l 210 0 l 79 0 "},"î":{"x_min":-25.09375,"x_max":405.578125,"ha":349,"o":"m 87 0 l 87 680 l 254 680 l 254 0 l 87 0 m 82 815 l 82 731 l -25 731 l -25 850 l 40 850 l 40 931 l 86 931 l 86 1036 l 299 1036 l 299 933 l 359 933 l 359 834 l 405 834 l 405 731 l 295 731 l 295 821 l 207 821 l 207 896 l 174 896 l 174 815 l 82 815 "},"−":{"x_min":31.203125,"x_max":653.8125,"ha":688,"o":"m 653 562 l 653 412 l 31 412 l 31 562 l 653 562 "},"⅜":{"x_min":60.359375,"x_max":1070.234375,"ha":1151,"o":"m 252 4 l 249 0 l 171 0 l 171 4 l 160 4 l 160 217 l 271 217 l 271 399 l 406 399 l 406 485 l 481 485 l 481 570 l 543 570 l 543 752 l 663 752 l 663 889 l 758 889 l 758 999 l 941 999 l 941 826 l 860 826 l 860 678 l 744 678 l 744 527 l 640 527 l 640 375 l 591 375 l 591 282 l 477 282 l 477 187 l 394 187 l 394 4 l 252 4 m 444 668 l 456 668 l 456 612 l 444 612 l 444 526 l 376 526 l 376 490 l 118 490 l 118 539 l 60 539 l 60 691 l 229 691 l 229 594 q 231 593 230 593 l 276 593 l 276 614 l 309 614 l 309 711 l 208 711 l 208 826 l 305 826 l 305 884 l 225 884 l 225 868 l 200 868 l 200 822 l 89 822 l 89 942 l 120 942 l 120 999 l 446 999 l 446 884 l 444 884 l 444 786 l 386 786 l 386 753 l 444 753 l 444 668 m 892 318 l 892 240 l 993 240 l 993 318 l 892 318 m 892 153 l 892 65 l 993 65 l 993 153 l 892 153 m 756 413 l 1070 413 l 1070 -4 l 756 -4 l 756 413 "},"≠":{"x_min":15.59375,"x_max":781.3125,"ha":839,"o":"m 632 657 l 690 657 l 690 518 l 473 518 l 473 462 l 398 462 l 398 450 l 693 450 l 693 305 l 248 305 l 248 260 l 183 260 l 183 187 l 119 187 l 119 131 l 15 131 l 15 237 l 80 237 l 80 293 l 145 293 l 145 305 l 90 305 l 90 450 l 295 450 l 295 495 l 369 495 l 369 518 l 92 518 l 92 657 l 528 657 l 528 709 l 604 709 l 604 785 l 677 785 l 677 838 l 781 838 l 781 733 l 708 733 l 708 679 l 632 679 l 632 657 "},"‼":{"x_min":99.703125,"x_max":557.5,"ha":654,"o":"m 274 908 l 274 273 l 99 273 l 99 908 l 274 908 m 269 176 l 269 23 l 99 23 l 99 176 l 269 176 m 557 910 l 557 275 l 382 275 l 382 910 l 557 910 m 552 178 l 552 25 l 382 25 l 382 178 l 552 178 "},"¥":{"x_min":8.140625,"x_max":874.234375,"ha":856,"o":"m 271 499 l 16 499 l 16 566 l 166 566 l 166 660 l 78 660 l 78 767 l 8 767 l 8 827 l 328 827 l 328 767 l 280 767 l 280 671 l 306 671 l 306 577 l 333 577 l 333 496 l 406 496 l 406 399 l 384 399 l 384 396 l 446 396 l 446 402 l 443 402 l 443 499 l 516 499 l 516 569 l 578 569 l 578 689 l 651 689 l 651 770 l 570 770 l 570 830 l 874 830 l 874 770 l 823 770 l 823 676 l 739 676 l 739 569 l 847 569 l 847 496 l 554 496 l 554 415 l 857 415 l 857 343 l 476 343 l 476 68 l 607 68 l 607 -20 l 220 -20 l 220 68 l 355 68 l 355 345 l 13 345 l 13 415 l 295 415 l 295 493 l 271 493 l 271 499 "},"U":{"x_min":58.328125,"x_max":949.515625,"ha":1018,"o":"m 254 283 l 753 283 l 753 997 l 949 997 l 949 0 l 58 0 l 58 995 l 60 995 l 60 997 l 254 997 l 254 283 "},"Ñ":{"x_min":68.5,"x_max":1015.984375,"ha":1054,"o":"m 537 618 l 614 618 l 614 519 l 701 519 l 701 402 l 760 402 l 760 316 q 762 313 760 314 l 809 313 l 809 987 l 1015 987 l 1015 0 l 718 0 l 718 127 l 641 127 l 641 223 l 558 223 l 558 329 l 476 329 l 476 416 l 393 416 l 393 568 l 337 568 l 337 642 l 285 642 l 285 0 l 68 0 l 68 997 l 285 997 l 285 952 l 373 952 l 373 861 l 468 861 l 468 712 l 537 712 l 537 618 m 443 1106 l 443 1046 l 341 1046 l 341 1165 l 368 1165 l 368 1233 l 659 1233 l 659 1275 l 776 1275 l 776 1169 l 743 1169 l 743 1106 l 443 1106 "},"F":{"x_min":60.359375,"x_max":680.9375,"ha":732,"o":"m 60 997 l 680 997 l 680 846 l 216 846 l 216 566 l 581 566 l 581 423 l 216 423 l 216 0 l 60 0 l 60 997 "},"*":{"x_min":142.421875,"x_max":540.546875,"ha":695,"o":"m 438 978 l 540 978 l 540 835 l 440 835 l 440 822 l 514 822 l 514 669 l 373 669 l 373 808 l 336 808 l 336 674 l 191 674 l 191 822 l 258 822 l 258 835 l 142 835 l 142 978 l 269 978 l 269 1093 l 419 1093 l 419 980 l 438 980 l 438 978 "},"†":{"x_min":23.0625,"x_max":651.765625,"ha":688,"o":"m 243 782 l 243 1032 l 445 1032 l 445 787 l 651 787 l 651 576 l 445 576 l 445 -206 l 243 -206 l 243 581 l 23 581 l 23 782 l 243 782 "},"∕":{"x_min":-233.3125,"x_max":474.75,"ha":232,"o":"m -90 110 l -93 105 l -93 -41 l -233 -41 l -233 145 l -145 145 l -145 278 l -93 278 l -93 381 l 2 381 l 2 554 l 93 554 l 93 676 l 214 676 l 214 824 l 260 824 l 260 906 l 335 906 l 335 988 l 474 988 l 474 849 l 404 849 l 404 753 l 337 753 l 337 605 l 272 605 l 272 493 l 172 493 l 172 335 l 91 335 l 91 183 l 2 183 l 2 110 l -90 110 "},"°":{"x_min":18.984375,"x_max":451.703125,"ha":457,"o":"m 135 894 q 134 893 134 893 l 134 687 l 317 687 l 317 894 l 135 894 m 451 996 l 451 564 l 18 564 l 18 996 l 451 996 "},"å":{"x_min":16.953125,"x_max":576.484375,"ha":625,"o":"m 50 0 l 50 81 l 23 81 l 23 379 l 118 379 l 118 411 l 252 411 l 252 452 l 400 452 l 400 529 l 182 529 q 181 527 181 528 l 181 452 l 16 452 l 16 610 l 93 610 l 93 678 l 552 678 l 552 583 l 576 583 l 576 0 l 400 0 l 400 8 l 322 8 l 322 0 l 50 0 m 396 171 q 400 178 398 174 l 400 285 l 254 285 l 254 244 l 174 244 l 174 141 l 309 141 l 309 171 l 396 171 m 301 901 l 301 801 l 402 801 l 402 901 l 301 901 m 491 1009 l 491 718 l 208 718 l 208 1009 l 491 1009 "},"0":{"x_min":42.734375,"x_max":594.796875,"ha":688,"o":"m 223 878 l 223 221 l 505 221 l 505 878 l 223 878 m 50 221 l 50 1031 l 592 1031 l 592 928 l 594 928 l 594 -2 l 578 -2 l 578 -17 l 42 -17 l 42 221 l 50 221 "},"”":{"x_min":73.25,"x_max":493.0625,"ha":617,"o":"m 493 992 l 493 710 l 461 710 l 461 693 l 314 693 l 314 924 l 320 924 l 320 1099 l 465 1099 l 465 992 l 493 992 m 252 988 l 252 706 l 221 706 l 221 689 l 73 689 l 73 920 l 79 920 l 79 1095 l 225 1095 l 225 988 l 252 988 "},"⅗":{"x_min":60.359375,"x_max":1068.203125,"ha":1151,"o":"m 444 668 l 456 668 l 456 612 l 444 612 l 444 526 l 376 526 l 376 490 l 118 490 l 118 539 l 60 539 l 60 691 l 229 691 l 229 594 q 231 593 230 593 l 276 593 l 276 614 l 309 614 l 309 711 l 208 711 l 208 826 l 305 826 l 305 884 l 225 884 l 225 868 l 200 868 l 200 822 l 89 822 l 89 942 l 120 942 l 120 999 l 446 999 l 446 884 l 444 884 l 444 786 l 386 786 l 386 753 l 444 753 l 444 668 m 252 4 l 249 0 l 171 0 l 171 4 l 160 4 l 160 217 l 271 217 l 271 399 l 406 399 l 406 485 l 481 485 l 481 570 l 543 570 l 543 752 l 663 752 l 663 889 l 758 889 l 758 999 l 941 999 l 941 826 l 860 826 l 860 678 l 744 678 l 744 527 l 640 527 l 640 375 l 591 375 l 591 282 l 477 282 l 477 187 l 394 187 l 394 4 l 252 4 m 697 459 l 697 467 l 1068 467 l 1068 366 l 797 366 l 797 236 l 1064 236 l 1064 137 l 1064 137 l 1064 0 l 697 0 l 697 54 l 989 54 l 989 137 l 695 137 l 695 459 l 697 459 "},"ö":{"x_min":18.984375,"x_max":641.59375,"ha":685,"o":"m 196 476 l 196 173 q 197 170 196 172 l 441 170 l 441 485 l 204 485 l 204 476 l 196 476 m 77 0 l 77 72 l 18 72 l 18 579 l 72 579 l 72 680 l 572 680 l 572 554 l 641 554 l 641 80 l 537 80 l 537 0 l 77 0 m 311 945 l 311 754 l 131 754 l 131 945 l 311 945 m 548 945 l 548 757 l 379 757 l 379 945 l 548 945 "},"Õ":{"x_min":50.1875,"x_max":1026.828125,"ha":1095,"o":"m 729 828 l 339 828 l 339 708 l 243 708 l 243 316 l 307 316 l 307 245 l 370 245 l 370 149 l 699 149 l 699 266 l 818 266 l 818 718 l 729 718 l 729 828 m 258 918 l 258 997 l 874 997 l 874 918 l 978 918 l 978 745 l 1026 745 l 1026 126 l 853 126 l 853 0 l 295 0 l 295 52 l 177 52 l 177 155 l 108 155 l 108 278 l 50 278 l 50 801 l 135 801 l 135 918 l 258 918 m 410 1084 l 410 1024 l 308 1024 l 308 1142 l 335 1142 l 335 1211 l 626 1211 l 626 1253 l 743 1253 l 743 1146 l 710 1146 l 710 1084 l 410 1084 "},"№":{"x_min":41.375,"x_max":1013.9375,"ha":1540,"o":"m 747 710 l 747 345 l 885 345 l 885 710 l 747 710 m 1013 832 l 1013 256 l 637 256 l 637 832 l 1013 832 m 368 245 l 256 245 l 256 529 l 214 529 l 214 0 l 41 0 l 41 999 l 214 999 l 214 920 l 316 920 l 316 678 l 412 678 l 412 409 q 414 404 413 406 l 484 404 l 484 999 l 593 999 l 593 0 l 484 0 l 484 2 l 395 2 l 395 212 l 368 212 l 368 245 m 1013 204 l 1013 56 l 620 56 l 620 204 l 1013 204 "},"þ":{"x_min":33.234375,"x_max":628.71875,"ha":685,"o":"m 33 -293 l 33 680 l 183 680 l 183 514 l 628 514 l 628 -98 l 424 -98 l 424 -97 l 183 -97 l 183 -293 l 33 -293 m 185 322 q 183 320 183 321 l 183 108 l 424 108 l 424 322 l 185 322 "},"]":{"x_min":118.6875,"x_max":457.796875,"ha":514,"o":"m 457 -220 l 278 -220 l 278 -218 l 120 -218 l 120 -36 l 278 -36 l 278 974 l 118 974 l 118 1141 l 457 1141 l 457 -220 "},"8":{"x_min":50.859375,"x_max":637.53125,"ha":688,"o":"m 384 499 l 255 499 l 255 426 l 209 426 l 209 154 l 266 154 l 266 54 l 406 54 l 406 151 l 459 151 l 459 447 l 384 447 l 384 499 m 158 940 l 158 999 l 526 999 l 526 926 l 594 926 l 594 569 l 524 569 l 524 563 l 484 563 l 484 541 l 637 541 l 637 17 l 551 17 l 551 -25 l 134 -25 l 134 6 l 50 6 l 50 539 l 204 539 l 204 563 l 174 563 l 174 577 l 88 577 l 88 940 l 158 940 m 433 908 l 220 908 l 220 663 l 433 663 l 433 908 "},"₵":{"x_min":60.359375,"x_max":885.078125,"ha":956,"o":"m 442 -2 l 431 -2 l 431 0 l 233 0 l 233 36 l 133 36 l 133 160 l 60 160 l 60 777 l 145 777 l 145 909 l 278 909 l 278 983 l 442 983 l 442 1083 l 516 1083 l 516 997 l 663 997 l 663 940 l 785 940 l 785 819 q 793 808 789 814 l 849 808 l 849 609 l 676 609 l 676 747 l 608 747 l 608 820 l 516 820 l 516 204 l 520 204 l 520 153 l 639 153 l 639 240 l 697 240 l 697 345 l 885 345 l 885 179 l 824 179 q 822 175 824 177 l 822 69 l 733 69 l 733 -2 l 516 -2 l 516 -78 l 442 -78 l 442 -2 m 442 800 l 362 800 l 362 653 l 233 653 l 233 288 l 339 288 l 339 204 l 442 204 l 442 800 "},"R":{"x_min":70.53125,"x_max":828.78125,"ha":870,"o":"m 249 833 l 249 575 l 564 575 l 564 833 l 249 833 m 387 436 l 249 436 l 249 -8 l 70 -8 l 70 997 l 770 997 l 770 439 l 610 439 l 610 379 l 704 379 l 704 267 l 762 267 l 762 147 l 828 147 l 828 0 l 634 0 l 634 113 l 562 113 l 562 240 l 484 240 l 484 350 l 387 350 l 387 436 "},"o":{"x_min":18.984375,"x_max":641.59375,"ha":685,"o":"m 196 476 l 196 173 q 197 170 196 172 l 441 170 l 441 485 l 204 485 l 204 476 l 196 476 m 77 0 l 77 72 l 18 72 l 18 579 l 72 579 l 72 680 l 572 680 l 572 554 l 641 554 l 641 80 l 537 80 l 537 0 l 77 0 "},"5":{"x_min":27.125,"x_max":659.234375,"ha":688,"o":"m 397 518 l 244 518 l 244 555 l 150 555 l 150 926 l 220 926 l 220 983 l 545 983 l 545 1031 l 659 1031 l 659 967 l 618 967 l 618 870 l 303 870 l 303 628 l 486 628 l 486 533 l 607 533 l 607 232 l 602 232 l 602 52 l 516 52 l 516 -17 l 158 -17 l 158 -31 l 27 -31 l 27 151 l 158 151 l 158 111 l 436 111 l 436 232 l 398 232 l 398 517 q 397 518 397 517 "},"⅙":{"x_min":60.359375,"x_max":994.28125,"ha":1151,"o":"m 213 927 l 213 990 l 365 990 l 365 487 l 213 487 l 213 780 l 182 780 l 182 738 l 60 738 l 60 889 l 150 889 l 150 927 l 213 927 m 982 9 l 982 -5 l 672 -5 l 672 250 l 680 250 l 680 357 l 692 357 l 692 407 l 994 407 l 994 345 l 776 345 l 776 250 l 986 250 l 986 9 l 982 9 m 779 70 l 925 70 l 925 189 l 779 189 l 779 70 m 252 4 l 249 0 l 171 0 l 171 4 l 160 4 l 160 217 l 271 217 l 271 399 l 406 399 l 406 485 l 481 485 l 481 570 l 543 570 l 543 752 l 663 752 l 663 889 l 758 889 l 758 999 l 941 999 l 941 826 l 860 826 l 860 678 l 744 678 l 744 527 l 640 527 l 640 375 l 591 375 l 591 282 l 477 282 l 477 187 l 394 187 l 394 4 l 252 4 "},"õ":{"x_min":18.984375,"x_max":641.59375,"ha":685,"o":"m 196 476 l 196 173 q 197 170 196 172 l 441 170 l 441 485 l 204 485 l 204 476 l 196 476 m 77 0 l 77 72 l 18 72 l 18 579 l 72 579 l 72 680 l 572 680 l 572 554 l 641 554 l 641 80 l 537 80 l 537 0 l 77 0 m 237 799 l 237 739 l 135 739 l 135 857 l 162 857 l 162 926 l 453 926 l 453 968 l 570 968 l 570 862 l 537 862 l 537 799 l 237 799 "},"₲":{"x_min":103.09375,"x_max":910.859375,"ha":975,"o":"m 424 5 l 284 5 l 284 77 l 190 77 l 190 160 l 130 160 l 130 267 l 103 267 l 103 709 l 138 709 q 140 715 139 712 l 140 869 l 227 869 q 227 870 227 870 l 227 959 l 323 959 l 323 996 l 424 996 l 424 1085 l 478 1085 l 478 996 l 714 996 l 714 952 l 850 952 l 850 819 l 875 819 l 875 684 l 719 684 l 719 767 l 671 767 l 671 813 l 517 813 l 517 851 l 478 851 l 478 128 l 615 128 l 615 214 l 733 214 l 733 360 l 500 360 l 500 526 l 910 526 l 910 360 l 881 360 l 881 109 l 829 109 l 829 17 l 706 17 l 706 3 l 478 3 l 478 -73 l 424 -73 l 424 5 m 424 851 l 369 851 l 369 720 l 263 720 l 263 651 l 245 651 l 245 318 l 286 318 l 286 248 l 327 248 l 327 182 l 424 182 l 424 851 "},",":{"x_min":56.296875,"x_max":269.25,"ha":378,"o":"m 269 205 l 269 -213 l 56 -213 l 56 205 l 269 205 "},"d":{"x_min":48.15625,"x_max":643.640625,"ha":705,"o":"m 242 153 q 244 151 242 152 l 446 151 l 446 576 l 242 576 l 242 153 m 48 0 l 48 645 l 50 645 l 50 740 l 446 740 l 446 997 l 643 997 l 643 0 l 48 0 "},"\"":{"x_min":75.28125,"x_max":430.671875,"ha":456,"o":"m 212 994 l 212 668 l 75 668 l 75 994 l 212 994 m 430 986 l 430 674 l 290 674 l 290 986 l 430 986 "},"˙":{"x_min":266.546875,"x_max":431.34375,"ha":695,"o":"m 431 941 l 431 758 l 266 758 l 266 941 l 431 941 "},"ê":{"x_min":56.296875,"x_max":550.03125,"ha":617,"o":"m 225 522 l 225 433 l 400 433 l 400 522 l 225 522 m 225 133 l 550 133 l 550 0 l 58 0 l 58 72 l 56 72 l 56 678 l 225 678 l 225 676 l 543 676 l 543 324 l 400 324 l 400 326 l 225 326 l 225 133 m 191 814 l 191 731 l 83 731 l 83 849 l 149 849 l 149 931 l 195 931 l 195 1035 l 407 1035 l 407 933 l 467 933 l 467 833 l 514 833 l 514 731 l 403 731 l 403 820 l 316 820 l 316 895 l 282 895 l 282 814 l 191 814 "},"„":{"x_min":68.5,"x_max":489,"ha":617,"o":"m 95 107 l 95 214 l 241 214 l 241 39 l 247 39 l 247 -191 l 99 -191 l 99 -174 l 68 -174 l 68 107 l 95 107 m 337 109 l 337 216 l 482 216 l 482 41 l 489 41 l 489 -189 l 341 -189 l 341 -172 l 309 -172 l 309 109 l 337 109 "},"Â":{"x_min":75.28125,"x_max":986.8125,"ha":1044,"o":"m 447 895 l 447 723 l 410 723 l 410 604 l 668 604 l 668 646 l 587 646 l 587 758 l 554 758 l 554 895 l 447 895 m 414 873 l 414 997 l 651 997 l 651 855 l 706 855 l 706 740 l 753 740 l 753 593 l 805 593 l 805 489 l 855 489 l 855 430 l 859 430 l 859 324 l 901 324 l 901 234 l 935 234 l 935 123 l 986 123 l 986 0 l 780 0 l 780 106 l 745 106 l 745 211 l 715 211 l 715 289 l 695 289 l 695 273 l 368 273 l 368 263 l 318 263 l 318 132 l 295 132 l 295 2 l 75 2 l 75 191 l 126 191 l 126 341 l 181 341 l 181 460 l 235 460 l 235 579 l 293 579 l 293 731 l 368 731 l 368 873 l 414 873 m 424 1093 l 424 1009 l 316 1009 l 316 1128 l 382 1128 l 382 1209 l 428 1209 l 428 1314 l 640 1314 l 640 1211 l 701 1211 l 701 1112 l 747 1112 l 747 1009 l 636 1009 l 636 1099 l 549 1099 l 549 1174 l 516 1174 l 516 1093 l 424 1093 "},"Í":{"x_min":118.6875,"x_max":483.578125,"ha":446,"o":"m 118 0 l 118 999 l 316 999 l 316 0 l 118 0 m 141 1064 l 138 1064 l 141 1067 l 141 1184 l 246 1184 l 246 1277 l 338 1277 l 338 1324 l 483 1324 l 483 1174 l 383 1174 l 383 1100 l 292 1100 l 292 1055 l 141 1055 l 141 1064 "},"´":{"x_min":214.3125,"x_max":559.53125,"ha":695,"o":"m 217 731 l 214 731 l 217 734 l 217 851 l 322 851 l 322 944 l 414 944 l 414 991 l 559 991 l 559 841 l 459 841 l 459 767 l 368 767 l 368 722 l 217 722 l 217 731 "},"Ú":{"x_min":58.328125,"x_max":949.515625,"ha":1018,"o":"m 254 283 l 753 283 l 753 997 l 949 997 l 949 0 l 58 0 l 58 995 l 60 995 l 60 997 l 254 997 l 254 283 m 456 1062 l 453 1062 l 456 1065 l 456 1182 l 561 1182 l 561 1275 l 653 1275 l 653 1322 l 798 1322 l 798 1171 l 698 1171 l 698 1098 l 607 1098 l 607 1053 l 456 1053 l 456 1062 "},"Ý":{"x_min":50.1875,"x_max":780.640625,"ha":836,"o":"m 337 474 l 320 474 l 320 493 l 245 493 l 245 577 l 198 577 l 198 704 l 130 704 l 130 821 l 50 821 l 50 997 l 254 997 l 254 861 l 322 861 l 322 740 l 385 740 l 385 632 l 387 629 l 472 629 l 472 746 l 514 746 l 514 864 l 587 864 l 587 989 l 780 989 l 780 819 l 689 819 l 689 818 l 689 728 l 640 728 l 639 726 l 639 603 l 574 603 l 574 493 l 524 493 l 524 480 l 510 480 l 510 0 l 337 0 l 337 474 m 290 1001 l 287 1001 l 290 1005 l 290 1121 l 396 1121 l 396 1215 l 487 1215 l 487 1262 l 632 1262 l 632 1111 l 533 1111 l 533 1038 l 441 1038 l 441 992 l 290 992 l 290 1001 "},"Ö":{"x_min":50.1875,"x_max":1026.828125,"ha":1095,"o":"m 729 828 l 339 828 l 339 708 l 243 708 l 243 316 l 307 316 l 307 245 l 370 245 l 370 149 l 699 149 l 699 266 l 818 266 l 818 718 l 729 718 l 729 828 m 258 918 l 258 997 l 874 997 l 874 918 l 978 918 l 978 745 l 1026 745 l 1026 126 l 853 126 l 853 0 l 295 0 l 295 52 l 177 52 l 177 155 l 108 155 l 108 278 l 50 278 l 50 801 l 135 801 l 135 918 l 258 918 m 495 1260 l 495 1069 l 314 1069 l 314 1260 l 495 1260 m 731 1260 l 731 1072 l 562 1072 l 562 1260 l 731 1260 "},"z":{"x_min":31.203125,"x_max":455.765625,"ha":493,"o":"m 219 219 l 219 153 l 179 153 l 179 131 l 455 131 l 455 0 l 31 0 l 31 131 l 41 131 l 41 227 l 109 227 l 109 362 l 188 362 l 188 486 l 245 486 l 245 541 l 52 541 l 52 680 l 449 680 l 449 541 l 407 541 l 407 388 l 334 388 l 334 246 l 241 246 l 241 219 l 219 219 "},"™":{"x_min":99.703125,"x_max":897.28125,"ha":1015,"o":"m 225 1066 l 99 1066 l 99 1170 l 468 1170 l 468 1066 l 349 1066 l 349 687 l 225 687 l 225 1066 m 697 843 l 697 883 l 720 883 l 720 1022 l 756 1022 l 756 1147 l 809 1147 l 809 1157 l 897 1157 l 897 687 l 809 687 l 809 997 l 803 997 q 801 991 802 994 l 801 813 l 762 813 l 762 674 l 643 674 l 643 773 q 642 778 642 775 l 590 778 l 590 976 q 590 980 590 978 l 581 980 l 581 689 l 493 689 l 493 1159 l 581 1159 l 581 1143 l 624 1143 l 624 1049 l 637 1049 l 637 1032 l 689 1032 l 689 843 l 697 843 "},"ã":{"x_min":16.953125,"x_max":576.484375,"ha":625,"o":"m 50 0 l 50 81 l 23 81 l 23 379 l 118 379 l 118 411 l 252 411 l 252 452 l 400 452 l 400 529 l 182 529 q 181 527 181 528 l 181 452 l 16 452 l 16 610 l 93 610 l 93 678 l 552 678 l 552 583 l 576 583 l 576 0 l 400 0 l 400 8 l 322 8 l 322 0 l 50 0 m 396 171 q 400 178 398 174 l 400 285 l 254 285 l 254 244 l 174 244 l 174 141 l 309 141 l 309 171 l 396 171 m 237 799 l 237 739 l 135 739 l 135 857 l 162 857 l 162 926 l 453 926 l 453 968 l 570 968 l 570 862 l 537 862 l 537 799 l 237 799 "},"æ":{"x_min":16.953125,"x_max":968.5,"ha":986,"o":"m 396 171 q 400 178 398 174 l 400 285 l 254 285 l 254 244 l 174 244 l 174 141 l 309 141 l 309 171 l 396 171 m 644 522 l 644 433 l 818 433 l 818 522 l 644 522 m 400 0 l 400 8 l 322 8 l 322 0 l 50 0 l 50 81 l 23 81 l 23 379 l 118 379 l 118 411 l 252 411 l 252 452 l 400 452 l 400 529 l 182 529 q 181 527 181 528 l 181 452 l 16 452 l 16 610 l 93 610 l 93 678 l 644 678 l 644 676 l 961 676 l 961 324 l 818 324 l 818 326 l 644 326 l 644 133 l 968 133 l 968 0 l 400 0 "},"É":{"x_min":50.1875,"x_max":760.28125,"ha":781,"o":"m 172 860 l 172 618 l 689 618 l 689 422 l 172 422 l 172 124 l 760 124 l 760 -6 l 52 -6 l 52 860 l 50 860 l 50 995 l 721 995 l 721 860 l 172 860 m 299 1056 l 295 1056 l 299 1059 l 299 1176 l 404 1176 l 404 1269 l 495 1269 l 495 1316 l 640 1316 l 640 1165 l 541 1165 l 541 1092 l 449 1092 l 449 1047 l 299 1047 l 299 1056 "},"~":{"x_min":32.5625,"x_max":651.09375,"ha":688,"o":"m 147 563 l 147 614 l 290 614 l 290 574 l 446 574 l 446 518 l 503 518 l 503 614 l 651 614 l 651 418 l 532 418 l 532 375 l 427 375 l 427 410 l 269 410 l 269 434 l 166 434 l 166 375 l 32 375 l 32 563 l 147 563 "},"³":{"x_min":66.46875,"x_max":389.296875,"ha":688,"o":"m 108 795 l 97 795 l 97 809 l 66 809 l 66 897 l 183 897 l 183 862 l 200 862 l 200 849 l 264 849 l 264 933 l 247 933 l 247 947 l 189 947 l 189 1003 l 241 1003 l 241 1026 l 268 1026 l 268 1037 l 252 1037 l 252 1068 l 200 1068 l 200 1015 l 83 1015 l 83 1161 l 172 1161 l 172 1170 l 283 1170 l 283 1155 l 387 1155 l 387 993 l 352 993 l 352 978 l 389 978 l 389 776 l 283 776 l 283 764 l 108 764 l 108 795 "},"¡":{"x_min":99.703125,"x_max":274.6875,"ha":456,"o":"m 99 23 l 99 657 l 274 657 l 274 23 l 99 23 m 99 754 l 99 908 l 269 908 l 269 754 l 99 754 "},"[":{"x_min":58.328125,"x_max":397.4375,"ha":514,"o":"m 58 1136 l 397 1136 l 397 969 l 237 969 l 237 -41 l 395 -41 l 395 -223 l 237 -223 l 237 -225 l 58 -225 l 58 1136 "},"%":{"x_min":95.625,"x_max":1101.4375,"ha":1159,"o":"m 466 973 l 466 589 l 98 589 l 98 973 l 466 973 m 328 261 l 328 134 l 210 134 l 210 261 l 327 261 l 327 387 l 442 387 l 442 514 l 550 514 l 550 640 l 663 640 l 663 761 l 773 761 l 773 885 l 883 885 l 883 974 l 1001 974 l 1001 847 l 891 847 l 891 758 l 781 758 l 781 634 l 668 634 l 668 514 l 560 514 l 560 387 l 445 387 l 445 261 l 328 261 m 213 132 l 213 5 l 95 5 l 95 132 l 213 132 m 1101 384 l 1101 0 l 733 0 l 733 384 l 1101 384 m 389 659 l 389 897 l 175 897 l 175 659 l 389 659 m 822 296 l 822 105 l 1021 105 l 1021 296 l 822 296 "},"P":{"x_min":48.15625,"x_max":716.203125,"ha":760,"o":"m 208 836 l 208 556 l 518 556 l 518 836 l 208 836 m 714 997 l 714 904 l 716 904 l 716 480 l 714 480 l 714 391 l 208 391 l 208 0 l 48 0 l 48 997 l 714 997 "},"∏":{"x_min":14.25,"x_max":1013.9375,"ha":1028,"o":"m 128 908 l 14 908 l 14 988 l 1013 988 l 1013 908 l 904 908 l 904 -212 l 1007 -212 l 1007 -291 l 595 -291 l 595 -212 l 706 -212 l 706 908 l 326 908 l 326 -223 l 431 -223 l 431 -291 l 21 -291 l 21 -223 l 128 -223 l 128 908 "},"_":{"x_min":-46.125,"x_max":716.203125,"ha":695,"o":"m 716 -18 l 716 -158 l -46 -158 l -46 -18 l 716 -18 "},"ñ":{"x_min":58.328125,"x_max":689.078125,"ha":751,"o":"m 461 543 l 406 543 l 406 529 l 328 529 l 328 442 l 225 442 q 225 441 225 442 l 225 0 l 58 0 l 58 656 l 225 656 l 225 624 l 287 624 l 287 650 l 366 650 l 366 678 l 499 678 l 499 658 l 645 658 l 645 577 l 689 577 l 689 0 l 512 0 l 512 497 l 464 497 l 464 542 q 461 543 463 543 m 264 824 l 264 763 l 162 763 l 162 882 l 189 882 l 189 950 l 480 950 l 480 992 l 597 992 l 597 886 l 564 886 l 564 824 l 264 824 "},"‚":{"x_min":69.171875,"x_max":248.234375,"ha":378,"o":"m 96 101 l 96 208 l 242 208 l 242 33 l 248 33 l 248 -198 l 100 -198 l 100 -181 l 69 -181 l 69 101 l 96 101 "},"⅞":{"x_min":82.75,"x_max":1070.234375,"ha":1151,"o":"m 278 -4 l 274 -8 l 196 -8 l 196 -4 l 185 -4 l 185 208 l 297 208 l 297 391 l 431 391 l 431 477 l 506 477 l 506 562 l 569 562 l 569 744 l 689 744 l 689 881 l 784 881 l 784 991 l 966 991 l 966 818 l 885 818 l 885 670 l 769 670 l 769 519 l 666 519 l 666 366 l 616 366 l 616 274 l 502 274 l 502 179 l 419 179 l 419 -4 l 278 -4 m 892 318 l 892 240 l 993 240 l 993 318 l 892 318 m 892 153 l 892 65 l 993 65 l 993 153 l 892 153 m 756 413 l 1070 413 l 1070 -4 l 756 -4 l 756 413 m 333 878 l 82 878 l 82 980 l 438 980 l 438 516 l 333 516 l 333 878 "},"Æ":{"x_min":60.359375,"x_max":1374.078125,"ha":1436,"o":"m 887 592 l 1322 592 l 1322 407 l 887 407 l 887 140 l 1372 140 l 1372 0 l 693 0 l 693 263 l 356 263 l 356 206 l 318 206 l 318 122 l 287 122 l 287 0 l 60 0 l 60 182 l 139 182 l 139 365 l 227 365 l 227 501 l 305 501 l 305 618 l 358 618 l 358 758 l 435 758 l 435 887 l 495 887 l 495 997 l 1374 997 l 1374 828 l 887 828 l 887 592 m 693 415 l 693 828 l 632 828 l 632 672 l 570 672 l 570 516 l 474 516 l 474 415 l 693 415 "},"₣":{"x_min":-2.03125,"x_max":743.328125,"ha":688,"o":"m 689 978 l 689 935 l 710 935 l 710 881 l 743 881 l 743 803 l 659 803 l 659 864 l 612 864 l 612 918 l 312 918 l 312 574 l 554 574 l 554 651 l 624 651 l 624 383 l 552 383 l 552 460 l 312 460 l 312 316 l 422 316 l 422 214 l 312 214 l 312 64 l 416 64 l 416 -14 l 31 -14 l 31 64 l 126 64 l 126 214 l 23 214 l 23 316 l 126 316 l 126 899 l -2 899 l -2 978 l 689 978 "},"ª":{"x_min":70.53125,"x_max":389.296875,"ha":439,"o":"m 152 1117 l 152 1147 l 366 1147 l 366 1091 l 389 1091 l 389 785 l 269 785 l 269 797 l 226 797 l 226 772 l 132 772 l 132 797 l 91 797 l 91 865 l 86 865 l 86 967 l 152 967 l 152 984 l 203 984 l 203 994 l 269 994 l 269 1040 l 200 1040 l 200 1009 l 70 1009 l 70 1117 l 152 1117 m 182 916 l 182 874 l 193 874 l 193 857 l 210 857 l 210 872 l 269 872 l 269 942 l 252 942 q 246 941 249 942 l 246 924 l 195 924 q 182 916 187 921 "},"T":{"x_min":48.15625,"x_max":864.0625,"ha":916,"o":"m 337 798 l 48 798 l 48 997 l 864 997 l 864 798 l 562 798 l 562 0 l 337 0 l 337 798 "},"Þ":{"x_min":46.125,"x_max":701.953125,"ha":760,"o":"m 206 653 l 206 352 l 505 352 l 505 653 l 206 653 m 46 0 l 46 997 l 206 997 l 206 820 l 701 820 l 701 177 l 206 177 l 206 0 l 46 0 "},"j":{"x_min":60.359375,"x_max":274.6875,"ha":346,"o":"m 271 651 l 274 649 l 274 -53 q 271 -107 274 -82 l 271 -255 l 193 -255 q 188 -258 191 -257 l 188 -293 l 60 -293 l 60 -105 l 139 -105 l 139 680 l 271 680 l 271 651 m 272 872 l 272 750 l 137 750 l 137 872 l 272 872 "},"1":{"x_min":105.125,"x_max":575.8125,"ha":688,"o":"m 411 103 q 412 101 411 101 l 575 101 l 575 -1 l 137 -1 l 137 101 l 261 101 l 261 792 l 105 792 l 105 953 l 261 953 l 261 991 l 411 991 l 411 103 "},"›":{"x_min":46.125,"x_max":311.984375,"ha":428,"o":"m 226 248 l 226 193 l 172 193 l 172 147 l 115 147 l 115 107 l 46 107 l 46 168 l 88 168 l 96 179 l 96 233 l 138 233 l 143 239 l 143 295 l 177 295 l 177 322 l 169 322 l 169 364 l 132 364 l 132 419 l 86 419 l 86 459 l 54 459 l 54 545 l 115 545 l 115 497 l 172 497 l 172 464 l 223 464 l 223 411 l 311 411 l 311 322 l 311 322 l 311 249 l 227 249 l 226 248 "},"<":{"x_min":53.578125,"x_max":653.8125,"ha":688,"o":"m 476 640 l 476 525 l 298 525 l 298 442 l 476 442 l 476 366 l 653 366 l 653 111 l 436 111 l 436 216 l 228 216 l 228 326 l 53 326 l 53 660 l 217 660 l 217 746 l 433 746 l 433 845 l 632 845 l 632 644 l 482 644 l 476 640 "},"t":{"x_min":21.03125,"x_max":414.390625,"ha":457,"o":"m 95 0 l 95 616 l 21 616 l 21 762 l 95 762 l 95 999 l 299 999 l 299 762 l 404 762 l 404 616 l 299 616 l 299 155 l 414 155 l 414 0 l 95 0 "},"¬":{"x_min":42.734375,"x_max":678.21875,"ha":688,"o":"m 524 423 l 42 423 l 42 550 l 678 550 l 678 181 l 524 181 l 524 423 "},"ù":{"x_min":35.265625,"x_max":718.234375,"ha":718,"o":"m 526 0 l 485 0 l 485 -2 l 35 -2 l 35 662 l 180 662 l 180 191 l 431 191 l 431 680 l 604 680 l 604 147 l 718 147 l 718 -2 l 526 -2 l 526 0 m 215 851 l 113 851 l 113 991 l 311 991 l 311 900 l 392 900 l 392 819 l 497 819 l 497 711 l 301 711 l 301 781 l 215 781 l 215 851 "},"ï":{"x_min":-21.03125,"x_max":396.078125,"ha":349,"o":"m 87 0 l 87 680 l 254 680 l 254 0 l 87 0 m 159 972 l 159 781 l -21 781 l -21 972 l 159 972 m 396 972 l 396 784 l 226 784 l 226 972 l 396 972 "},"Ò":{"x_min":50.1875,"x_max":1026.828125,"ha":1095,"o":"m 729 828 l 339 828 l 339 708 l 243 708 l 243 316 l 307 316 l 307 245 l 370 245 l 370 149 l 699 149 l 699 266 l 818 266 l 818 718 l 729 718 l 729 828 m 258 918 l 258 997 l 874 997 l 874 918 l 978 918 l 978 745 l 1026 745 l 1026 126 l 853 126 l 853 0 l 295 0 l 295 52 l 177 52 l 177 155 l 108 155 l 108 278 l 50 278 l 50 801 l 135 801 l 135 918 l 258 918 m 335 1184 l 233 1184 l 233 1324 l 432 1324 l 432 1233 l 513 1233 l 513 1152 l 618 1152 l 618 1044 l 421 1044 l 421 1114 l 335 1114 l 335 1184 "},"&":{"x_min":48.15625,"x_max":1183.5,"ha":1141,"o":"m 325 550 l 239 550 l 239 340 l 339 340 l 339 114 l 618 114 l 618 205 l 476 205 l 476 426 l 325 426 l 325 550 m 467 1023 l 726 1023 l 726 727 l 465 727 l 465 905 l 398 905 l 398 674 l 451 674 l 451 630 l 586 630 l 586 518 l 656 518 l 656 297 l 774 297 l 774 426 l 707 426 l 707 630 l 1086 630 l 1086 426 l 909 426 l 909 229 l 826 229 l 826 192 l 904 192 l 904 198 l 1183 198 l 1183 -79 l 904 -79 l 904 -46 l 712 -46 l 712 68 l 642 68 l 642 -20 l 188 -20 l 188 106 l 110 106 l 110 324 l 48 324 l 48 609 l 199 609 l 199 956 l 320 956 l 320 1053 l 467 1053 l 467 1023 "},"˝":{"x_min":143.78125,"x_max":552.75,"ha":695,"o":"m 220 925 l 220 1009 l 337 1009 l 337 857 l 301 857 l 301 781 l 230 781 l 230 701 l 143 701 l 143 820 l 172 820 l 172 925 l 220 925 m 431 923 l 431 1007 l 552 1007 l 552 855 l 516 855 l 516 779 l 442 779 l 442 699 l 352 699 l 352 818 l 382 818 l 382 923 l 431 923 "},"I":{"x_min":118.6875,"x_max":316.734375,"ha":446,"o":"m 118 0 l 118 999 l 316 999 l 316 0 l 118 0 "},"G":{"x_min":141.75,"x_max":949.515625,"ha":1003,"o":"m 177 706 q 179 712 178 708 l 179 866 l 265 866 q 266 866 265 866 l 266 955 l 362 955 l 362 993 l 753 993 l 753 948 l 889 948 l 889 816 l 914 816 l 914 680 l 758 680 l 758 763 l 710 763 l 710 810 l 556 810 l 556 848 l 408 848 l 408 716 l 301 716 l 301 648 l 284 648 l 284 314 l 324 314 l 324 244 l 366 244 l 366 179 l 510 179 l 510 125 l 653 125 l 653 210 l 772 210 l 772 357 l 539 357 l 539 522 l 949 522 l 949 357 l 920 357 l 920 106 l 868 106 l 868 14 l 745 14 l 745 0 l 480 0 l 480 2 l 322 2 l 322 73 l 229 73 l 229 157 l 168 157 l 168 263 l 141 263 l 141 706 l 177 706 "},"`":{"x_min":113.265625,"x_max":497.8125,"ha":695,"o":"m 215 851 l 113 851 l 113 991 l 311 991 l 311 900 l 392 900 l 392 819 l 497 819 l 497 711 l 301 711 l 301 781 l 215 781 l 215 851 "},"·":{"x_min":68.5,"x_max":276.71875,"ha":345,"o":"m 276 585 l 276 366 l 68 366 l 68 585 l 276 585 "},"¿":{"x_min":72.5625,"x_max":465.265625,"ha":514,"o":"m 72 12 l 72 128 l 174 128 l 174 109 l 284 109 l 284 262 l 215 262 l 215 378 l 169 378 l 169 552 l 150 552 l 150 763 l 261 763 l 261 593 l 347 593 l 347 413 l 417 413 l 417 302 l 465 302 l 465 25 l 368 25 l 368 -4 l 169 -4 l 169 12 l 72 12 m 137 794 l 137 983 l 317 983 l 317 794 l 137 794 "},"ý":{"x_min":50.1875,"x_max":559.53125,"ha":589,"o":"m 268 202 l 293 202 l 293 470 l 356 470 q 358 475 357 473 l 358 693 l 507 693 l 507 307 l 426 307 l 426 137 l 377 137 l 377 0 l 349 0 l 349 -179 l 283 -179 l 283 -293 l 70 -293 l 70 -120 l 206 -120 l 206 0 l 164 0 l 164 177 l 133 177 l 133 318 l 50 318 l 50 706 l 202 706 l 202 464 l 267 464 l 267 204 q 268 202 267 203 m 217 731 l 214 731 l 217 734 l 217 851 l 322 851 l 322 944 l 414 944 l 414 991 l 559 991 l 559 841 l 459 841 l 459 767 l 368 767 l 368 722 l 217 722 l 217 731 "},"º":{"x_min":68.5,"x_max":389.296875,"ha":487,"o":"m 184 1043 l 184 859 l 280 859 l 280 1043 l 184 1043 m 68 772 l 68 1149 l 389 1149 l 389 772 l 68 772 "},"∞":{"x_min":31.203125,"x_max":676.859375,"ha":688,"o":"m 241 393 l 241 597 l 135 597 l 135 574 l 110 574 l 110 368 l 214 368 l 214 393 l 241 393 m 370 592 l 370 368 q 371 368 370 368 l 560 368 q 568 375 564 371 l 568 597 l 376 597 q 370 592 373 594 m 33 735 l 676 735 l 676 597 l 674 597 l 674 230 l 31 230 l 31 368 l 33 368 l 33 735 "},"₱":{"x_min":100.375,"x_max":999.703125,"ha":1094,"o":"m 205 679 l 205 710 l 100 710 l 100 824 l 205 824 l 205 1001 l 871 1001 l 871 908 l 873 908 l 873 824 l 999 824 l 999 710 l 873 710 l 873 679 l 975 679 l 975 595 l 873 595 l 873 484 l 871 484 l 871 395 l 365 395 l 365 4 l 205 4 l 205 595 l 103 595 l 103 679 l 205 679 m 676 595 l 365 595 l 365 560 l 676 560 l 676 595 m 365 824 l 676 824 l 676 841 l 365 841 l 365 824 m 676 710 l 365 710 l 365 679 l 676 679 l 676 710 "},";":{"x_min":64.4375,"x_max":266.546875,"ha":378,"o":"m 266 666 l 266 461 l 72 461 l 72 666 l 266 666 m 263 202 l 263 -221 l 64 -221 l 64 202 l 263 202 "},"6":{"x_min":37.984375,"x_max":648.375,"ha":688,"o":"m 306 923 l 306 1009 l 575 1009 l 575 889 l 384 889 l 384 746 l 266 746 l 266 593 l 562 593 l 562 522 l 648 522 l 648 87 l 578 87 l 578 -23 l 158 -23 l 158 52 l 37 52 l 37 588 l 72 588 l 72 832 l 228 832 l 228 923 l 306 923 m 448 469 l 204 469 l 204 141 q 208 132 206 137 l 473 132 l 473 257 l 448 257 l 448 469 "},"n":{"x_min":58.328125,"x_max":689.078125,"ha":751,"o":"m 461 543 l 406 543 l 406 529 l 328 529 l 328 442 l 225 442 q 225 441 225 442 l 225 0 l 58 0 l 58 656 l 225 656 l 225 624 l 287 624 l 287 650 l 366 650 l 366 678 l 499 678 l 499 658 l 645 658 l 645 577 l 689 577 l 689 0 l 512 0 l 512 497 l 464 497 l 464 542 q 461 543 463 543 "},"℗":{"x_min":48.15625,"x_max":1087.1875,"ha":1193,"o":"m 701 908 l 433 908 l 433 878 l 326 878 l 326 752 l 215 752 l 215 700 l 164 700 l 164 316 l 225 316 l 225 184 l 328 184 l 328 117 l 347 117 l 347 57 l 732 57 l 732 122 l 807 122 l 807 189 l 909 189 l 909 321 l 971 321 l 971 706 l 920 706 l 920 757 l 809 757 l 809 883 l 701 883 l 701 908 m 392 975 l 392 1020 l 745 1020 l 745 980 l 853 980 l 853 918 l 944 918 l 944 864 l 1014 864 l 1014 775 l 1087 775 l 1087 294 l 1032 294 l 1032 138 l 957 138 l 957 42 l 839 42 l 839 1 l 748 1 l 748 -33 l 331 -33 l 331 -4 l 295 -4 l 295 36 l 177 36 l 177 132 l 102 132 l 102 288 l 48 288 l 48 770 l 120 770 l 120 859 l 191 859 l 191 913 l 282 913 l 282 975 l 392 975 m 459 644 l 459 473 l 672 473 l 672 644 l 459 644 m 805 743 l 805 686 l 807 686 l 807 427 l 805 427 l 805 373 l 459 373 l 459 133 l 349 133 l 349 743 l 805 743 "},"¤":{"x_min":35.265625,"x_max":642.953125,"ha":688,"o":"m 204 638 l 204 354 l 481 354 l 481 638 l 204 638 m 495 714 l 495 816 l 642 816 l 642 649 l 567 649 l 567 337 l 637 337 l 637 200 l 492 200 l 492 254 l 199 254 l 199 200 l 56 200 l 56 343 l 118 343 l 118 649 l 35 649 l 35 819 l 193 819 l 193 714 l 495 714 "},"∂":{"x_min":37.984375,"x_max":648.375,"ha":688,"o":"m 457 923 l 457 832 l 613 832 l 613 588 l 648 588 l 648 52 l 527 52 l 527 -23 l 107 -23 l 107 87 l 37 87 l 37 522 l 124 522 l 124 593 l 419 593 l 419 746 l 301 746 l 301 889 l 110 889 l 110 1009 l 379 1009 l 379 923 l 457 923 m 202 501 l 202 77 l 470 77 l 470 501 l 202 501 "},"p":{"x_min":48.15625,"x_max":643.640625,"ha":685,"o":"m 449 529 q 447 531 448 531 l 245 531 l 245 120 l 449 120 l 449 529 m 643 678 l 643 49 l 641 49 l 641 -43 l 245 -43 l 245 -293 l 48 -293 l 48 678 l 643 678 "},"‡":{"x_min":23.0625,"x_max":651.765625,"ha":688,"o":"m 243 220 l 243 581 l 23 581 l 23 782 l 243 782 l 243 1032 l 445 1032 l 445 787 l 651 787 l 651 576 l 445 576 l 445 220 l 649 220 l 649 10 l 445 10 l 445 -206 l 243 -206 l 243 10 l 33 10 l 33 220 l 243 220 "},"√":{"x_min":-4.0625,"x_max":720.265625,"ha":688,"o":"m 126 162 l 126 289 l 185 289 l 185 406 l 241 406 l 241 541 l 307 541 l 307 661 l 360 661 l 360 743 l 417 743 l 418 745 l 418 859 l 443 859 l 443 924 l 493 924 l 493 1007 l 543 1007 l 543 1101 l 581 1101 l 581 1153 l 720 1153 l 720 1076 l 672 1076 l 672 972 l 603 972 l 603 895 l 583 895 l 583 816 l 533 816 l 533 680 l 516 680 l 516 605 l 422 605 l 420 601 l 420 470 l 362 470 l 362 272 l 276 272 l 276 135 l 235 135 l 235 75 l 160 75 l 160 6 l 125 6 l 122 0 l 120 6 l 87 6 l 87 70 l 35 70 l 35 170 l -4 170 l -4 285 l 101 285 l 101 200 l 114 200 l 114 162 l 126 162 "},"S":{"x_min":52.21875,"x_max":693.140625,"ha":736,"o":"m 632 839 l 651 839 l 651 675 l 539 675 l 539 730 l 493 730 l 493 796 l 402 796 l 402 841 l 247 841 l 247 730 l 227 730 l 227 635 l 339 635 l 339 582 l 462 582 l 462 564 l 554 564 l 554 505 l 661 505 l 661 380 l 693 380 l 693 157 l 659 157 l 659 0 l 283 0 l 283 11 l 133 11 l 133 92 l 52 92 l 52 374 l 227 374 l 227 196 l 309 196 l 309 151 l 466 151 l 466 198 l 510 198 l 510 347 l 408 347 l 408 434 l 347 434 l 347 461 l 264 461 l 264 481 l 122 481 l 122 564 l 64 564 l 64 807 l 108 807 l 108 954 l 233 954 l 233 997 l 449 997 l 449 977 l 595 977 l 595 912 l 632 912 l 632 839 "},"/":{"x_min":8.8125,"x_max":470.6875,"ha":386,"o":"m 282 569 l 277 554 l 277 200 l 180 200 l 180 33 l 88 33 l 88 -90 l 10 -90 l 10 -33 l 8 -33 l 10 -28 l 10 205 l 88 205 l 88 375 l 158 375 l 158 377 l 158 633 l 239 633 l 239 894 l 287 894 l 287 1012 l 470 1012 l 470 808 l 381 808 l 381 569 l 282 569 "},"⅖":{"x_min":60.359375,"x_max":1068.203125,"ha":1151,"o":"m 320 630 l 441 630 l 441 533 l 60 533 l 60 630 l 111 630 l 111 704 l 179 704 l 179 748 l 251 748 l 251 807 l 301 807 l 301 889 l 224 889 l 224 834 l 91 834 l 91 966 l 153 966 l 153 999 l 447 999 l 447 914 l 453 914 l 453 770 l 392 770 l 392 692 l 320 692 l 320 630 m 252 4 l 249 0 l 171 0 l 171 4 l 160 4 l 160 217 l 271 217 l 271 399 l 406 399 l 406 485 l 481 485 l 481 570 l 543 570 l 543 752 l 663 752 l 663 889 l 758 889 l 758 999 l 941 999 l 941 826 l 860 826 l 860 678 l 744 678 l 744 527 l 640 527 l 640 375 l 591 375 l 591 282 l 477 282 l 477 187 l 394 187 l 394 4 l 252 4 m 697 459 l 697 467 l 1068 467 l 1068 366 l 797 366 l 797 236 l 1064 236 l 1064 137 l 1064 137 l 1064 0 l 697 0 l 697 54 l 989 54 l 989 137 l 695 137 l 695 459 l 697 459 "},"y":{"x_min":50.1875,"x_max":507.984375,"ha":589,"o":"m 268 202 l 293 202 l 293 470 l 356 470 q 358 475 357 473 l 358 693 l 507 693 l 507 307 l 426 307 l 426 137 l 377 137 l 377 0 l 349 0 l 349 -179 l 283 -179 l 283 -293 l 70 -293 l 70 -120 l 206 -120 l 206 0 l 164 0 l 164 177 l 133 177 l 133 318 l 50 318 l 50 706 l 202 706 l 202 464 l 267 464 l 267 204 q 268 202 267 203 "},"≈":{"x_min":25.09375,"x_max":636.84375,"ha":688,"o":"m 558 545 l 558 522 l 501 522 l 501 518 l 402 518 l 402 529 l 314 529 l 314 564 l 237 564 l 237 550 l 128 550 l 128 497 l 65 497 q 63 495 64 497 l 63 497 l 25 497 l 25 691 l 114 691 l 114 710 l 237 710 l 237 697 l 314 697 l 314 718 l 422 718 l 422 637 l 486 637 l 486 647 l 545 647 l 545 716 l 634 716 l 634 552 l 566 552 l 566 545 l 558 545 m 60 260 l 27 260 l 27 453 l 116 453 l 116 472 l 239 472 l 239 460 l 316 460 l 316 480 l 424 480 l 424 400 l 489 400 l 489 410 l 547 410 l 547 478 l 636 478 l 636 314 l 568 314 l 568 307 l 560 307 l 560 285 l 503 285 l 503 281 l 404 281 l 404 291 l 316 291 l 316 326 l 239 326 l 239 312 l 130 312 l 130 260 l 70 260 l 70 256 l 60 256 l 60 260 "},"g":{"x_min":37.296875,"x_max":589.375,"ha":610,"o":"m 400 501 l 170 501 l 170 130 l 400 130 l 400 501 m 587 650 l 589 650 l 589 -293 l 37 -293 l 37 -88 l 187 -88 l 187 -148 l 400 -148 l 400 -33 l 37 -33 l 37 650 l 428 650 l 428 680 l 587 680 l 587 650 "},"²":{"x_min":68.5,"x_max":389.296875,"ha":688,"o":"m 187 1028 l 187 979 l 70 979 l 70 1102 l 104 1102 l 104 1145 l 210 1145 l 210 1147 l 343 1147 l 343 1098 l 389 1098 l 389 966 l 352 966 l 352 892 l 275 892 l 275 881 l 260 881 l 260 847 l 379 847 l 379 772 l 68 772 l 68 847 l 113 847 q 114 848 113 847 l 114 921 l 194 921 q 197 923 196 922 l 197 964 l 239 964 l 239 992 l 275 992 l 275 1043 l 224 1043 l 224 1028 l 187 1028 "},"ë":{"x_min":56.296875,"x_max":550.03125,"ha":617,"o":"m 225 522 l 225 433 l 400 433 l 400 522 l 225 522 m 225 133 l 550 133 l 550 0 l 58 0 l 58 72 l 56 72 l 56 678 l 225 678 l 225 676 l 543 676 l 543 324 l 400 324 l 400 326 l 225 326 l 225 133 m 290 982 l 290 792 l 110 792 l 110 982 l 290 982 m 527 982 l 527 794 l 358 794 l 358 982 l 527 982 "},"–":{"x_min":16.953125,"x_max":735.1875,"ha":751,"o":"m 735 400 l 735 243 l 16 243 l 16 400 l 735 400 "},"J":{"x_min":0,"x_max":503.921875,"ha":504,"o":"m 34 0 l 34 101 l 0 101 l 0 314 l 166 314 l 166 185 l 281 185 l 281 147 l 328 147 l 328 193 l 360 193 l 360 997 l 503 997 l 503 149 l 484 149 l 484 66 l 439 66 l 439 -2 l 271 -2 l 271 0 l 34 0 "},"Ã":{"x_min":75.28125,"x_max":986.8125,"ha":1044,"o":"m 447 895 l 447 723 l 410 723 l 410 604 l 668 604 l 668 646 l 587 646 l 587 758 l 554 758 l 554 895 l 447 895 m 414 873 l 414 997 l 651 997 l 651 855 l 706 855 l 706 740 l 753 740 l 753 593 l 805 593 l 805 489 l 855 489 l 855 430 l 859 430 l 859 324 l 901 324 l 901 234 l 935 234 l 935 123 l 986 123 l 986 0 l 780 0 l 780 106 l 745 106 l 745 211 l 715 211 l 715 289 l 695 289 l 695 273 l 368 273 l 368 263 l 318 263 l 318 132 l 295 132 l 295 2 l 75 2 l 75 191 l 126 191 l 126 341 l 181 341 l 181 460 l 235 460 l 235 579 l 293 579 l 293 731 l 368 731 l 368 873 l 414 873 m 410 1084 l 410 1024 l 308 1024 l 308 1142 l 335 1142 l 335 1211 l 626 1211 l 626 1253 l 743 1253 l 743 1146 l 710 1146 l 710 1084 l 410 1084 "},"©":{"x_min":48.15625,"x_max":1087.1875,"ha":1135,"o":"m 701 908 l 433 908 l 433 878 l 326 878 l 326 752 l 215 752 l 215 700 l 164 700 l 164 316 l 225 316 l 225 184 l 328 184 l 328 117 l 347 117 l 347 57 l 732 57 l 732 122 l 807 122 l 807 189 l 909 189 l 909 321 l 971 321 l 971 706 l 920 706 l 920 757 l 809 757 l 809 883 l 701 883 l 701 908 m 695 843 l 801 843 l 801 674 l 672 674 l 672 738 l 470 738 l 470 684 l 387 684 l 387 622 l 376 622 l 376 361 l 443 361 l 443 270 l 710 270 l 710 359 l 828 359 l 828 208 l 798 208 l 798 173 l 726 173 l 726 138 l 368 138 l 368 210 l 274 210 l 274 334 l 220 334 l 220 706 l 314 706 l 314 741 l 347 741 l 347 813 l 454 813 l 454 856 l 695 856 l 695 843 m 392 975 l 392 1020 l 745 1020 l 745 980 l 853 980 l 853 918 l 944 918 l 944 864 l 1014 864 l 1014 775 l 1087 775 l 1087 294 l 1032 294 l 1032 138 l 957 138 l 957 42 l 839 42 l 839 1 l 748 1 l 748 -33 l 331 -33 l 331 -4 l 295 -4 l 295 36 l 177 36 l 177 132 l 102 132 l 102 288 l 48 288 l 48 770 l 120 770 l 120 859 l 191 859 l 191 913 l 282 913 l 282 975 l 392 975 "},"˘":{"x_min":118.6875,"x_max":581.234375,"ha":695,"o":"m 543 847 l 543 720 l 151 720 l 151 849 l 118 849 l 118 941 l 235 941 l 235 849 l 464 849 l 464 939 l 581 939 l 581 847 l 543 847 "},"≥":{"x_min":46.125,"x_max":653.8125,"ha":688,"o":"m 641 110 l 641 -12 l 46 -12 l 46 110 l 641 110 m 225 652 l 75 652 l 75 845 l 274 845 l 274 750 l 489 750 l 489 668 l 653 668 l 653 347 l 478 347 l 478 242 l 271 242 l 271 141 l 53 141 l 53 386 l 231 386 l 231 458 l 408 458 l 408 538 l 231 538 l 231 649 l 225 652 "},"D":{"x_min":14.25,"x_max":970.53125,"ha":1030,"o":"m 581 864 l 225 864 l 225 115 l 457 115 l 457 177 l 691 177 l 691 279 l 770 279 l 770 602 l 710 602 l 710 764 l 581 764 l 581 864 m 16 841 l 14 841 l 14 997 l 774 997 l 774 935 l 904 935 l 904 808 l 955 808 l 955 646 l 970 646 l 970 128 l 874 128 l 874 79 l 791 79 l 791 25 l 687 25 l 687 2 l 16 2 l 16 841 "},"₰":{"x_min":88.171875,"x_max":845.75,"ha":914,"o":"m 417 345 l 417 303 l 394 303 l 394 408 l 187 408 l 187 279 l 88 279 l 88 5 l 290 5 l 290 90 l 325 90 l 325 28 l 493 28 l 493 137 l 566 137 l 566 12 l 631 12 l 631 -91 l 436 -91 l 436 -250 l 753 -250 l 753 -227 l 845 -227 l 845 140 l 773 140 l 773 376 l 738 376 l 738 411 l 780 411 l 780 609 l 845 609 l 845 996 l 367 996 l 367 810 l 390 810 l 390 585 l 440 585 l 440 411 l 451 411 l 451 345 l 417 345 m 696 899 l 696 655 l 528 655 l 528 899 l 696 899 "},"ÿ":{"x_min":50.1875,"x_max":507.984375,"ha":589,"o":"m 268 202 l 293 202 l 293 470 l 356 470 q 358 475 357 473 l 358 693 l 507 693 l 507 307 l 426 307 l 426 137 l 377 137 l 377 0 l 349 0 l 349 -179 l 283 -179 l 283 -293 l 70 -293 l 70 -120 l 206 -120 l 206 0 l 164 0 l 164 177 l 133 177 l 133 318 l 50 318 l 50 706 l 202 706 l 202 464 l 267 464 l 267 204 q 268 202 267 203 m 264 1007 l 264 817 l 84 817 l 84 1007 l 264 1007 m 501 1007 l 501 819 l 331 819 l 331 1007 l 501 1007 "},"$":{"x_min":75.28125,"x_max":618.546875,"ha":688,"o":"m 618 870 l 618 676 l 494 676 l 494 870 l 618 870 m 297 867 l 231 867 l 231 538 l 297 538 l 297 867 m 145 870 l 145 972 l 297 972 l 297 1077 l 389 1077 l 389 972 l 491 972 l 491 867 l 389 867 l 389 538 l 545 538 l 545 437 l 615 437 l 615 103 l 548 103 l 548 2 l 389 2 l 389 -141 l 297 -141 l 297 2 l 202 2 l 202 106 l 297 106 l 297 434 l 159 434 l 159 537 l 78 537 l 78 870 l 145 870 m 389 434 l 389 106 l 461 106 l 461 434 l 389 434 m 75 103 l 75 297 l 199 297 l 199 103 l 75 103 "},"w":{"x_min":66.46875,"x_max":926.453125,"ha":960,"o":"m 120 459 l 66 459 l 66 640 l 252 640 l 252 511 l 295 511 l 295 350 l 356 350 l 356 520 l 424 520 l 424 621 l 612 621 l 612 463 l 620 463 l 620 343 l 651 343 l 651 350 l 704 350 l 704 535 l 745 535 l 745 678 l 926 678 l 926 482 l 874 482 l 874 339 l 832 339 l 832 174 l 774 174 l 774 0 l 545 0 l 545 164 l 514 164 l 514 322 l 470 322 l 470 101 l 426 101 l 426 -2 l 208 -2 l 208 156 l 153 156 l 153 308 l 120 308 l 120 459 "},"∫":{"x_min":-85.453125,"x_max":533.078125,"ha":451,"o":"m 296 857 q 295 851 296 854 l 295 -70 l 189 -70 l 189 -212 l 29 -212 l 29 -206 l -85 -206 l -85 -18 l 29 -18 l 29 -2 l 122 -2 l 122 910 l 229 910 l 229 1085 l 303 1085 l 303 1170 l 428 1170 l 428 1184 l 533 1184 l 533 1009 l 428 1009 l 428 1034 l 360 1034 l 360 857 l 296 857 "},"\\":{"x_min":0.671875,"x_max":462.546875,"ha":461,"o":"m 89 579 l 89 819 l 0 819 l 0 1023 l 183 1023 l 183 905 l 231 905 l 231 644 l 312 644 l 312 387 l 313 385 l 382 385 l 382 216 l 460 216 l 460 -17 l 462 -23 l 460 -23 l 460 -79 l 382 -79 l 382 44 l 290 44 l 290 210 l 193 210 l 193 564 l 188 579 l 89 579 "},"Ì":{"x_min":-63.75,"x_max":320.796875,"ha":446,"o":"m 118 0 l 118 999 l 316 999 l 316 0 l 118 0 m 37 1207 l -63 1207 l -63 1348 l 134 1348 l 134 1256 l 215 1256 l 215 1176 l 320 1176 l 320 1068 l 124 1068 l 124 1138 l 37 1138 l 37 1207 "},"Ç":{"x_min":60.359375,"x_max":885.078125,"ha":949,"o":"m 395 0 l 395 -56 l 529 -56 l 529 -118 l 533 -118 l 533 -245 l 510 -245 l 510 -287 l 229 -287 l 229 -191 l 418 -191 l 418 -147 l 303 -147 l 303 0 l 233 0 l 233 36 l 133 36 l 133 160 l 60 160 l 60 777 l 145 777 l 145 909 l 278 909 l 278 983 l 445 983 l 445 997 l 663 997 l 663 940 l 785 940 l 785 819 q 793 808 789 814 l 849 808 l 849 609 l 676 609 l 676 747 l 608 747 l 608 820 l 478 820 l 478 800 l 362 800 l 362 653 l 233 653 l 233 288 l 339 288 l 339 204 l 520 204 l 520 153 l 639 153 l 639 240 l 697 240 l 697 345 l 885 345 l 885 179 l 824 179 q 822 175 824 177 l 822 69 l 733 69 l 733 -2 l 431 -2 l 431 0 l 395 0 "},"C":{"x_min":60.359375,"x_max":885.078125,"ha":949,"o":"m 431 -2 l 431 0 l 233 0 l 233 36 l 133 36 l 133 160 l 60 160 l 60 777 l 145 777 l 145 909 l 278 909 l 278 983 l 445 983 l 445 997 l 663 997 l 663 940 l 785 940 l 785 819 q 793 808 789 814 l 849 808 l 849 609 l 676 609 l 676 747 l 608 747 l 608 820 l 478 820 l 478 800 l 362 800 l 362 653 l 233 653 l 233 288 l 339 288 l 339 204 l 520 204 l 520 153 l 639 153 l 639 240 l 697 240 l 697 345 l 885 345 l 885 179 l 824 179 q 822 175 824 177 l 822 69 l 733 69 l 733 -2 l 431 -2 "},"!":{"x_min":99.703125,"x_max":274.6875,"ha":456,"o":"m 274 908 l 274 273 l 99 273 l 99 908 l 274 908 m 269 176 l 269 23 l 99 23 l 99 176 l 269 176 "},"ç":{"x_min":37.296875,"x_max":587.34375,"ha":614,"o":"m 303 0 l 81 0 l 81 84 l 37 84 l 37 514 l 81 514 l 81 619 l 168 619 l 168 680 l 435 680 l 435 632 l 518 632 l 518 588 l 570 588 l 570 442 l 473 442 l 465 440 q 463 442 464 442 l 435 442 l 435 486 l 378 486 l 378 531 l 243 531 l 243 484 l 212 484 l 212 155 l 412 155 l 412 274 l 587 274 l 587 88 l 522 88 l 522 0 l 395 0 l 395 -56 l 529 -56 l 529 -118 l 533 -118 l 533 -245 l 510 -245 l 510 -287 l 229 -287 l 229 -191 l 418 -191 l 418 -147 l 303 -147 l 303 0 "},"È":{"x_min":50.1875,"x_max":760.28125,"ha":781,"o":"m 172 860 l 172 618 l 689 618 l 689 422 l 172 422 l 172 124 l 760 124 l 760 -6 l 52 -6 l 52 860 l 50 860 l 50 995 l 721 995 l 721 860 l 172 860 m 335 1184 l 233 1184 l 233 1324 l 432 1324 l 432 1233 l 513 1233 l 513 1152 l 618 1152 l 618 1044 l 421 1044 l 421 1114 l 335 1114 l 335 1184 "},"ﬁ":{"x_min":73.25,"x_max":643.640625,"ha":728,"o":"m 285 845 l 285 716 l 375 716 l 375 578 l 285 578 l 285 0 l 144 0 l 144 578 l 73 578 l 73 716 l 144 716 l 144 924 l 183 924 l 183 999 l 425 999 l 425 863 l 306 863 l 306 845 l 285 845 m 643 933 l 643 746 l 478 746 l 478 933 l 643 933 m 476 2 l 476 682 l 643 682 l 643 2 l 476 2 "},"X":{"x_min":75.28125,"x_max":830.828125,"ha":916,"o":"m 189 855 l 120 855 l 120 1020 l 299 1020 l 299 912 l 385 912 l 385 780 l 435 780 l 435 670 l 460 670 l 460 778 l 529 778 l 529 872 l 574 872 l 574 974 l 632 974 l 632 1024 l 789 1024 l 789 887 l 720 887 l 720 795 l 670 795 l 670 699 l 616 699 l 616 601 l 547 601 l 547 503 l 632 503 l 632 373 l 687 373 l 687 260 l 747 260 l 747 141 l 830 141 l 830 0 l 657 0 l 657 87 l 593 87 l 593 187 l 512 187 l 512 305 l 437 305 l 437 424 l 422 424 l 422 280 l 383 280 l 383 218 l 335 218 l 335 110 l 262 110 l 262 0 l 75 0 l 75 196 l 179 196 l 179 303 l 247 303 l 247 368 l 280 368 l 280 472 l 352 472 l 352 593 l 268 593 l 268 727 l 189 727 l 189 855 "},"ô":{"x_min":18.984375,"x_max":641.59375,"ha":685,"o":"m 196 476 l 196 173 q 197 170 196 172 l 441 170 l 441 485 l 204 485 l 204 476 l 196 476 m 77 0 l 77 72 l 18 72 l 18 579 l 72 579 l 72 680 l 572 680 l 572 554 l 641 554 l 641 80 l 537 80 l 537 0 l 77 0 m 231 830 l 231 747 l 123 747 l 123 866 l 189 866 l 189 947 l 235 947 l 235 1051 l 447 1051 l 447 949 l 507 949 l 507 849 l 554 849 l 554 747 l 443 747 l 443 836 l 356 836 l 356 912 l 322 912 l 322 830 l 231 830 "},"đ":{"x_min":48.15625,"x_max":936.625,"ha":987,"o":"m 244 151 l 446 151 l 446 576 l 242 576 l 242 153 q 244 151 242 152 m 643 812 l 643 0 l 48 0 l 48 645 l 50 645 l 50 740 l 446 740 l 446 812 l 174 812 l 174 951 l 446 951 l 446 997 l 643 997 l 643 951 l 936 951 l 936 812 l 643 812 "},"}":{"x_min":59,"x_max":537.828125,"ha":688,"o":"m 233 1001 l 59 1001 l 59 1087 l 306 1087 l 306 1031 l 360 1031 l 360 547 l 537 547 l 537 348 l 357 348 l 357 -111 l 317 -111 l 317 -168 l 69 -168 l 69 -90 l 236 -90 l 236 348 l 233 348 l 233 547 l 233 547 l 233 1001 q 233 1001 233 1001 "},"â":{"x_min":16.953125,"x_max":576.484375,"ha":625,"o":"m 50 0 l 50 81 l 23 81 l 23 379 l 118 379 l 118 411 l 252 411 l 252 452 l 400 452 l 400 529 l 182 529 q 181 527 181 528 l 181 452 l 16 452 l 16 610 l 93 610 l 93 678 l 552 678 l 552 583 l 576 583 l 576 0 l 400 0 l 400 8 l 322 8 l 322 0 l 50 0 m 396 171 q 400 178 398 174 l 400 285 l 254 285 l 254 244 l 174 244 l 174 141 l 309 141 l 309 171 l 396 171 "},"ø":{"x_min":18.984375,"x_max":641.59375,"ha":685,"o":"m 81 0 l 77 0 l 77 72 l 18 72 l 18 579 l 72 579 l 72 680 l 501 680 l 501 737 l 604 737 l 604 624 l 572 624 l 572 554 l 641 554 l 641 80 l 537 80 l 537 0 l 184 0 l 184 -95 l 81 -95 l 81 0 m 441 337 l 381 337 l 381 208 l 321 208 l 321 170 l 441 170 l 441 337 m 196 246 l 255 246 l 255 385 l 322 385 l 322 484 l 411 484 l 411 485 l 204 485 l 204 476 l 196 476 l 196 246 "},"Ä":{"x_min":75.28125,"x_max":986.8125,"ha":1044,"o":"m 447 895 l 447 723 l 410 723 l 410 604 l 668 604 l 668 646 l 587 646 l 587 758 l 554 758 l 554 895 l 447 895 m 414 873 l 414 997 l 651 997 l 651 855 l 706 855 l 706 740 l 753 740 l 753 593 l 805 593 l 805 489 l 855 489 l 855 430 l 859 430 l 859 324 l 901 324 l 901 234 l 935 234 l 935 123 l 986 123 l 986 0 l 780 0 l 780 106 l 745 106 l 745 211 l 715 211 l 715 289 l 695 289 l 695 273 l 368 273 l 368 263 l 318 263 l 318 132 l 295 132 l 295 2 l 75 2 l 75 191 l 126 191 l 126 341 l 181 341 l 181 460 l 235 460 l 235 579 l 293 579 l 293 731 l 368 731 l 368 873 l 414 873 m 495 1260 l 495 1069 l 314 1069 l 314 1260 l 495 1260 m 731 1260 l 731 1072 l 562 1072 l 562 1260 l 731 1260 "},"‰":{"x_min":99.015625,"x_max":1555.84375,"ha":1633,"o":"m 470 977 l 470 592 l 101 592 l 101 977 l 470 977 m 332 264 l 332 137 l 214 137 l 214 264 l 330 264 l 330 391 l 446 391 l 446 517 l 554 517 l 554 644 l 666 644 l 666 765 l 777 765 l 777 889 l 887 889 l 887 978 l 1005 978 l 1005 851 l 895 851 l 895 762 l 784 762 l 784 638 l 672 638 l 672 517 l 564 517 l 564 390 l 448 390 l 448 264 l 332 264 m 217 135 l 217 8 l 99 8 l 99 135 l 217 135 m 1104 387 l 1104 3 l 736 3 l 736 387 l 1104 387 m 393 663 l 393 900 l 179 900 l 179 663 l 393 663 m 825 299 l 825 108 l 1024 108 l 1024 299 l 825 299 m 1555 387 l 1555 3 l 1187 3 l 1187 387 l 1555 387 m 1276 299 l 1276 108 l 1475 108 l 1475 299 l 1276 299 "},"N":{"x_min":68.5,"x_max":1015.984375,"ha":1054,"o":"m 537 618 l 614 618 l 614 519 l 701 519 l 701 402 l 760 402 l 760 316 q 762 313 760 314 l 809 313 l 809 987 l 1015 987 l 1015 0 l 718 0 l 718 127 l 641 127 l 641 223 l 558 223 l 558 329 l 476 329 l 476 416 l 393 416 l 393 568 l 337 568 l 337 642 l 285 642 l 285 0 l 68 0 l 68 997 l 285 997 l 285 952 l 373 952 l 373 861 l 468 861 l 468 712 l 537 712 l 537 618 "},"—":{"x_min":0,"x_max":1389,"ha":1389,"o":"m 0 391 l 1389 391 l 1389 256 l 0 256 l 0 391 "},"2":{"x_min":56.296875,"x_max":651.09375,"ha":688,"o":"m 392 312 l 392 181 l 301 181 l 301 117 l 551 117 l 551 192 l 651 192 l 651 95 l 615 95 l 615 -25 l 56 -25 l 56 117 l 128 117 l 128 240 l 217 240 l 217 440 l 387 440 l 387 600 l 430 600 l 430 869 q 427 872 429 871 l 271 872 l 271 835 l 80 835 l 80 983 l 247 983 l 247 1026 l 537 1026 l 537 929 l 621 929 l 621 563 l 559 563 l 559 337 l 408 337 l 408 312 l 392 312 "},"⁄":{"x_min":-233.3125,"x_max":474.75,"ha":232,"o":"m -90 110 l -93 105 l -93 -41 l -233 -41 l -233 145 l -145 145 l -145 278 l -93 278 l -93 381 l 2 381 l 2 554 l 93 554 l 93 676 l 214 676 l 214 824 l 260 824 l 260 906 l 335 906 l 335 988 l 474 988 l 474 849 l 404 849 l 404 753 l 337 753 l 337 605 l 272 605 l 272 493 l 172 493 l 172 335 l 91 335 l 91 183 l 2 183 l 2 110 l -90 110 "},"ü":{"x_min":35.265625,"x_max":718.234375,"ha":718,"o":"m 526 0 l 485 0 l 485 -2 l 35 -2 l 35 662 l 180 662 l 180 191 l 431 191 l 431 680 l 604 680 l 604 147 l 718 147 l 718 -2 l 526 -2 l 526 0 m 299 960 l 299 769 l 118 769 l 118 960 l 299 960 m 535 960 l 535 772 l 366 772 l 366 960 l 535 960 "},"":{"x_min":73.25,"x_max":648.375,"ha":733,"o":"m 285 845 l 285 716 l 375 716 l 375 578 l 285 578 l 285 0 l 144 0 l 144 578 l 73 578 l 73 716 l 144 716 l 144 924 l 183 924 l 183 999 l 425 999 l 425 863 l 306 863 l 306 845 l 285 845 m 648 997 l 648 0 l 503 0 l 503 997 l 648 997 "},"Ó":{"x_min":50.1875,"x_max":1026.828125,"ha":1095,"o":"m 729 828 l 339 828 l 339 708 l 243 708 l 243 316 l 307 316 l 307 245 l 370 245 l 370 149 l 699 149 l 699 266 l 818 266 l 818 718 l 729 718 l 729 828 m 258 918 l 258 997 l 874 997 l 874 918 l 978 918 l 978 745 l 1026 745 l 1026 126 l 853 126 l 853 0 l 295 0 l 295 52 l 177 52 l 177 155 l 108 155 l 108 278 l 50 278 l 50 801 l 135 801 l 135 918 l 258 918 m 456 1062 l 453 1062 l 456 1065 l 456 1182 l 561 1182 l 561 1275 l 653 1275 l 653 1322 l 798 1322 l 798 1171 l 698 1171 l 698 1098 l 607 1098 l 607 1053 l 456 1053 l 456 1062 "},"˜":{"x_min":135.640625,"x_max":570.390625,"ha":695,"o":"m 237 799 l 237 739 l 135 739 l 135 857 l 162 857 l 162 926 l 453 926 l 453 968 l 570 968 l 570 862 l 537 862 l 537 799 l 237 799 "},"ˇ":{"x_min":127.5,"x_max":558.171875,"ha":695,"o":"m 326 935 l 326 853 l 360 853 l 360 929 l 447 929 l 447 1018 l 558 1018 l 558 916 l 512 916 l 512 816 l 451 816 l 451 714 l 239 714 l 239 818 l 193 818 l 193 900 l 127 900 l 127 1018 l 235 1018 l 235 935 l 326 935 "},"Ÿ":{"x_min":50.1875,"x_max":780.640625,"ha":831,"o":"m 337 474 l 320 474 l 320 493 l 245 493 l 245 577 l 198 577 l 198 704 l 130 704 l 130 821 l 50 821 l 50 997 l 254 997 l 254 861 l 322 861 l 322 740 l 385 740 l 385 632 l 387 629 l 472 629 l 472 746 l 514 746 l 514 864 l 587 864 l 587 989 l 780 989 l 780 819 l 689 819 l 689 818 l 689 728 l 640 728 l 639 726 l 639 603 l 574 603 l 574 493 l 524 493 l 524 480 l 510 480 l 510 0 l 337 0 l 337 474 m 411 1245 l 411 1054 l 231 1054 l 231 1245 l 411 1245 m 648 1245 l 648 1057 l 478 1057 l 478 1245 l 648 1245 "},"€":{"x_min":25.09375,"x_max":661.953125,"ha":688,"o":"m 196 576 l 570 576 l 570 510 l 162 510 q 163 491 163 501 l 551 491 l 551 433 l 190 433 l 190 360 l 227 360 l 227 233 l 249 233 l 249 177 l 349 177 l 349 70 l 548 70 l 548 153 l 617 153 q 618 158 617 156 l 618 231 l 661 231 l 661 58 l 621 58 q 620 57 620 57 l 620 21 l 563 21 l 563 -2 l 288 -2 l 288 27 l 242 27 l 242 70 l 152 70 l 152 204 l 102 204 l 102 347 l 86 347 l 86 433 l 25 433 l 25 491 l 89 491 l 89 510 l 49 510 l 49 576 l 88 576 l 88 789 l 145 789 l 145 935 l 242 935 l 242 997 l 309 997 l 309 1013 l 537 1013 l 537 1028 l 623 1028 l 623 799 l 537 799 l 537 918 l 341 918 l 341 859 l 252 859 l 252 712 l 196 712 l 196 576 "},"ß":{"x_min":60.359375,"x_max":756.21875,"ha":848,"o":"m 316 94 l 315 95 l 275 95 l 275 222 l 413 222 l 413 168 l 603 168 l 603 265 l 541 265 l 541 318 l 440 318 l 440 387 l 354 387 l 354 602 l 402 602 l 402 733 l 467 733 l 467 811 l 248 811 l 248 6 l 60 6 l 60 895 l 105 895 l 105 997 l 628 997 l 628 811 l 622 811 l 622 688 l 574 688 l 574 558 l 522 558 l 522 508 l 603 508 l 603 439 l 735 439 l 735 314 l 756 314 l 756 36 l 636 36 l 636 0 l 316 0 l 316 94 "},"s":{"x_min":64.4375,"x_max":620.578125,"ha":662,"o":"m 541 574 l 585 574 l 585 446 l 426 446 l 426 490 l 368 490 l 368 516 l 260 516 l 260 489 l 229 489 l 229 449 l 303 449 l 303 423 l 387 423 l 387 392 l 579 392 l 579 331 l 620 331 l 620 74 l 554 74 l 554 0 l 379 0 l 379 26 l 120 26 l 120 102 l 68 102 l 68 276 l 237 276 l 237 186 l 389 186 l 389 151 l 431 151 l 431 253 l 362 253 l 362 270 l 254 270 l 254 313 l 185 313 l 185 326 l 64 326 l 64 583 l 116 583 l 116 636 l 235 636 l 235 678 l 377 678 l 377 657 l 541 657 l 541 574 "},"⅚":{"x_min":48.828125,"x_max":1016.65625,"ha":1151,"o":"m 50 1005 l 50 1014 l 421 1014 l 421 913 l 150 913 l 150 782 l 417 782 l 417 683 l 417 683 l 417 545 l 50 545 l 50 601 l 342 601 l 342 683 l 48 683 l 48 1005 l 50 1005 m 252 4 l 249 0 l 171 0 l 171 4 l 160 4 l 160 217 l 271 217 l 271 399 l 406 399 l 406 485 l 481 485 l 481 570 l 543 570 l 543 752 l 663 752 l 663 889 l 758 889 l 758 999 l 941 999 l 941 826 l 860 826 l 860 678 l 744 678 l 744 527 l 640 527 l 640 375 l 591 375 l 591 282 l 477 282 l 477 187 l 394 187 l 394 4 l 252 4 m 1005 13 l 1005 -1 l 695 -1 l 695 254 l 703 254 l 703 361 l 714 361 l 714 411 l 1016 411 l 1016 349 l 798 349 l 798 254 l 1009 254 l 1009 13 l 1005 13 m 802 74 l 948 74 l 948 193 l 802 193 l 802 74 "},"?":{"x_min":72.5625,"x_max":465.265625,"ha":507,"o":"m 169 967 l 169 983 l 368 983 l 368 953 l 465 953 l 465 676 l 417 676 l 417 566 l 347 566 l 347 385 l 261 385 l 261 216 l 150 216 l 150 426 l 169 426 l 169 600 l 215 600 l 215 716 l 284 716 l 284 870 l 174 870 l 174 851 l 72 851 l 72 967 l 169 967 m 317 184 l 317 -4 l 137 -4 l 137 184 l 317 184 "},"c":{"x_min":37.296875,"x_max":587.34375,"ha":614,"o":"m 81 0 l 81 84 l 37 84 l 37 514 l 81 514 l 81 619 l 168 619 l 168 680 l 435 680 l 435 632 l 518 632 l 518 588 l 570 588 l 570 442 l 473 442 l 465 440 q 463 442 464 442 l 435 442 l 435 486 l 378 486 l 378 531 l 243 531 l 243 484 l 212 484 l 212 155 l 412 155 l 412 274 l 587 274 l 587 88 l 522 88 l 522 0 l 81 0 "},"¶":{"x_min":35.265625,"x_max":674.828125,"ha":695,"o":"m 373 973 l 630 973 l 630 972 l 674 972 l 674 897 l 543 897 l 543 0 l 488 0 l 488 897 l 375 897 l 375 0 l 318 0 l 318 482 l 35 482 l 35 974 l 373 974 l 373 973 "},"•":{"x_min":106.484375,"x_max":597.515625,"ha":695,"o":"m 597 743 l 597 227 l 106 227 l 106 743 l 597 743 "},"(":{"x_min":161.421875,"x_max":495.109375,"ha":514,"o":"m 306 953 l 306 1101 l 476 1101 l 476 835 l 344 835 l 344 33 l 495 33 l 495 -262 l 242 -262 l 242 -17 l 161 -17 l 161 953 l 306 953 "},"­":{"x_min":40.015625,"x_max":411.6875,"ha":454,"o":"m 411 388 l 411 254 l 40 254 l 40 388 l 411 388 "},":":{"x_min":72.5625,"x_max":269.25,"ha":378,"o":"m 266 666 l 266 461 l 72 461 l 72 666 l 266 666 m 269 195 l 269 -9 l 75 -9 l 75 195 l 269 195 "},"Û":{"x_min":58.328125,"x_max":949.515625,"ha":1018,"o":"m 254 283 l 753 283 l 753 997 l 949 997 l 949 0 l 58 0 l 58 995 l 60 995 l 60 997 l 254 997 l 254 283 m 424 1093 l 424 1009 l 316 1009 l 316 1128 l 382 1128 l 382 1209 l 428 1209 l 428 1314 l 640 1314 l 640 1211 l 701 1211 l 701 1112 l 747 1112 l 747 1009 l 636 1009 l 636 1099 l 549 1099 l 549 1174 l 516 1174 l 516 1093 l 424 1093 "},"V":{"x_min":66.46875,"x_max":838.96875,"ha":988,"o":"m 343 0 l 343 196 l 270 196 l 270 395 l 202 395 l 202 614 l 128 614 l 128 808 l 66 808 l 66 997 l 264 997 l 264 843 l 309 843 l 309 660 l 377 660 l 377 441 l 439 441 l 439 223 l 495 223 l 495 367 l 537 367 l 537 530 l 587 530 l 587 714 l 651 714 q 651 716 651 715 l 651 862 l 693 862 l 693 961 l 838 961 l 838 787 l 791 787 l 791 607 l 739 607 l 739 425 l 682 425 l 682 270 l 626 270 l 626 132 l 570 132 l 570 0 l 343 0 "}," ":{"x_min":0,"x_max":0,"ha":345},"@":{"x_min":61.71875,"x_max":1288.625,"ha":1369,"o":"m 720 151 l 720 385 l 602 385 l 602 329 l 532 329 l 532 151 l 720 151 m 604 593 l 604 510 l 478 510 l 478 692 l 564 692 l 564 716 l 798 716 l 798 655 l 860 655 l 860 117 l 1011 117 l 1011 205 l 1102 205 l 1102 426 l 1110 426 l 1110 647 l 998 647 l 998 792 l 906 792 l 906 862 l 419 862 l 419 738 l 330 738 l 330 641 l 258 641 l 258 117 l 376 117 l 376 -65 l 508 -65 l 508 -154 l 965 -154 l 965 -95 l 1108 -95 l 1108 -192 l 1030 -192 l 1030 -288 l 440 -288 l 440 -240 l 271 -240 l 271 -132 l 115 -132 l 115 98 l 61 98 l 61 697 l 166 697 l 166 816 l 266 816 l 266 894 l 381 894 l 381 978 l 987 978 l 987 956 l 1079 956 l 1079 864 l 1216 864 l 1216 781 l 1288 781 l 1288 265 l 1250 265 l 1250 87 l 1116 87 l 1116 44 l 1057 44 l 1057 4 l 834 4 l 834 33 l 807 33 l 807 -1 l 495 -1 l 495 79 l 411 79 l 411 402 l 448 402 l 448 442 l 578 442 l 578 488 l 720 488 l 720 593 l 604 593 "},"¾":{"x_min":60.359375,"x_max":1070.234375,"ha":1158,"o":"m 259 -2 l 257 -6 l 179 -6 l 179 -2 l 167 -2 l 167 210 l 278 210 l 278 392 l 411 392 l 411 478 l 486 478 l 486 562 l 548 562 l 548 744 l 667 744 l 667 880 l 761 880 l 761 990 l 942 990 l 942 817 l 862 817 l 862 670 l 748 670 l 748 519 l 644 519 l 644 367 l 595 367 l 595 276 l 482 276 l 482 180 l 400 180 l 400 -2 l 259 -2 m 444 668 l 456 668 l 456 612 l 444 612 l 444 526 l 376 526 l 376 490 l 118 490 l 118 539 l 60 539 l 60 691 l 229 691 l 229 594 q 231 593 230 593 l 276 593 l 276 614 l 309 614 l 309 711 l 208 711 l 208 826 l 305 826 l 305 884 l 225 884 l 225 868 l 200 868 l 200 822 l 89 822 l 89 942 l 120 942 l 120 999 l 446 999 l 446 884 l 444 884 l 444 786 l 386 786 l 386 753 l 444 753 l 444 668 m 788 214 l 788 200 l 778 200 l 778 180 l 862 180 l 862 280 l 859 280 l 859 267 l 829 267 l 829 221 l 796 221 l 796 214 l 788 214 m 862 436 l 862 500 l 986 500 l 986 180 l 1070 180 l 1070 87 l 986 87 l 986 2 l 862 2 l 862 87 l 646 87 l 646 180 l 663 180 l 663 271 l 720 271 l 720 373 l 806 373 l 806 436 l 862 436 "},"i":{"x_min":87.484375,"x_max":254.328125,"ha":349,"o":"m 254 931 l 254 744 l 89 744 l 89 931 l 254 931 m 87 0 l 87 680 l 254 680 l 254 0 l 87 0 "},"₳":{"x_min":69.171875,"x_max":1047.859375,"ha":1125,"o":"m 293 690 l 293 731 l 368 731 l 368 774 l 69 774 l 69 835 l 368 835 l 368 873 l 414 873 l 414 997 l 651 997 l 651 855 l 706 855 l 706 835 l 1047 835 l 1047 774 l 706 774 l 706 740 l 753 740 l 753 690 l 1044 690 l 1044 640 l 753 640 l 753 593 l 805 593 l 805 489 l 855 489 l 855 430 l 859 430 l 859 324 l 901 324 l 901 234 l 935 234 l 935 123 l 986 123 l 986 0 l 780 0 l 780 106 l 745 106 l 745 211 l 715 211 l 715 289 l 695 289 l 695 273 l 368 273 l 368 263 l 318 263 l 318 132 l 295 132 l 295 2 l 75 2 l 75 191 l 126 191 l 126 341 l 181 341 l 181 460 l 235 460 l 235 579 l 293 579 l 293 640 l 73 640 l 73 690 l 293 690 m 668 640 l 410 640 l 410 604 l 668 604 l 668 640 m 447 835 l 554 835 l 554 895 l 447 895 l 447 835 m 554 774 l 447 774 l 447 723 l 410 723 l 410 690 l 587 690 l 587 758 l 554 758 l 554 774 "},"≤":{"x_min":35.265625,"x_max":643.640625,"ha":688,"o":"m 643 99 l 643 -23 l 35 -23 l 35 99 l 643 99 m 460 659 l 460 544 l 282 544 l 282 461 l 460 461 l 460 385 l 638 385 l 638 130 l 420 130 l 420 235 l 212 235 l 212 345 l 37 345 l 37 679 l 202 679 l 202 765 l 417 765 l 417 864 l 616 864 l 616 663 l 466 663 l 460 659 "},"⅓":{"x_min":60.359375,"x_max":1068.203125,"ha":1141,"o":"m 252 4 l 250 0 l 171 0 l 171 4 l 160 4 l 160 217 l 272 217 l 272 399 l 406 399 l 406 485 l 481 485 l 481 570 l 544 570 l 544 752 l 664 752 l 664 889 l 758 889 l 758 999 l 942 999 l 942 826 l 861 826 l 861 678 l 745 678 l 745 527 l 641 527 l 641 375 l 592 375 l 592 282 l 477 282 l 477 187 l 394 187 l 394 4 l 252 4 m 213 927 l 213 990 l 365 990 l 365 487 l 213 487 l 213 780 l 182 780 l 182 738 l 60 738 l 60 889 l 150 889 l 150 927 l 213 927 m 1056 177 l 1068 177 l 1068 122 l 1056 122 l 1056 40 l 988 40 l 988 4 l 729 4 l 729 52 l 672 52 l 672 199 l 841 199 l 841 105 q 843 104 842 104 l 887 104 l 887 124 l 921 124 l 921 219 l 820 219 l 820 329 l 917 329 l 917 385 l 836 385 l 836 370 l 812 370 l 812 325 l 701 325 l 701 442 l 731 442 l 731 497 l 1058 497 l 1058 385 l 1056 385 l 1056 291 l 998 291 l 998 259 l 1056 259 l 1056 177 "},"m":{"x_min":52.21875,"x_max":1009.875,"ha":1064,"o":"m 599 440 l 599 0 l 460 0 l 460 516 l 293 516 l 293 462 l 214 462 l 214 0 l 52 0 l 52 695 l 214 695 l 214 630 l 249 630 l 249 688 l 465 688 l 465 674 l 599 674 l 599 622 l 632 622 q 634 624 633 623 l 634 691 l 997 691 l 997 562 l 1009 562 l 1009 0 l 845 0 l 845 537 l 691 537 l 691 451 l 602 451 q 599 440 600 445 "},"á":{"x_min":16.953125,"x_max":576.484375,"ha":625,"o":"m 50 0 l 50 81 l 23 81 l 23 379 l 118 379 l 118 411 l 252 411 l 252 452 l 400 452 l 400 529 l 182 529 q 181 527 181 528 l 181 452 l 16 452 l 16 610 l 93 610 l 93 678 l 552 678 l 552 583 l 576 583 l 576 0 l 400 0 l 400 8 l 322 8 l 322 0 l 50 0 m 396 171 q 400 178 398 174 l 400 285 l 254 285 l 254 244 l 174 244 l 174 141 l 309 141 l 309 171 l 396 171 m 217 731 l 214 731 l 217 734 l 217 851 l 322 851 l 322 944 l 414 944 l 414 991 l 559 991 l 559 841 l 459 841 l 459 767 l 368 767 l 368 722 l 217 722 l 217 731 "},"×":{"x_min":83.421875,"x_max":590.046875,"ha":688,"o":"m 518 404 l 590 404 l 590 237 l 419 237 l 419 330 l 256 330 l 256 237 l 85 237 l 85 415 l 179 415 l 179 497 l 181 497 l 181 578 l 83 578 l 83 749 l 254 749 l 254 645 l 418 645 l 418 754 l 589 754 l 589 583 l 518 583 l 518 404 "},"K":{"x_min":62.390625,"x_max":874.90625,"ha":937,"o":"m 219 336 l 214 331 l 214 -6 l 62 -6 l 62 988 l 214 988 l 214 604 l 289 604 l 289 709 l 389 709 l 389 800 l 499 800 l 499 908 l 601 908 l 601 997 l 847 997 l 847 845 l 745 845 l 745 731 l 632 731 l 632 573 l 472 573 l 472 537 l 512 537 l 512 484 l 572 484 l 572 419 l 674 419 l 674 304 l 741 304 l 741 183 l 874 183 l 874 2 l 872 2 l 872 0 l 744 0 q 741 2 743 0 l 626 2 l 626 131 q 624 133 626 132 l 524 133 l 524 238 l 443 238 l 443 333 l 389 333 l 389 427 l 307 427 l 307 336 l 219 336 "},"7":{"x_min":59,"x_max":645.671875,"ha":688,"o":"m 433 440 q 430 430 432 435 l 430 280 l 406 280 l 406 60 l 508 60 l 508 -6 l 206 -6 l 206 60 l 293 60 l 293 299 l 325 299 l 325 512 l 381 512 l 381 674 l 419 674 l 419 870 l 193 870 l 193 808 l 59 808 l 59 983 l 193 983 l 193 980 l 645 980 l 645 870 l 600 870 l 600 611 l 511 611 l 511 440 l 433 440 "},"¨":{"x_min":131.578125,"x_max":548.6875,"ha":695,"o":"m 311 945 l 311 754 l 131 754 l 131 945 l 311 945 m 548 945 l 548 757 l 379 757 l 379 945 l 548 945 "},"Y":{"x_min":50.1875,"x_max":780.640625,"ha":836,"o":"m 337 474 l 320 474 l 320 493 l 245 493 l 245 577 l 198 577 l 198 704 l 130 704 l 130 821 l 50 821 l 50 997 l 254 997 l 254 861 l 322 861 l 322 740 l 385 740 l 385 632 l 387 629 l 472 629 l 472 746 l 514 746 l 514 864 l 587 864 l 587 989 l 780 989 l 780 819 l 689 819 l 689 818 l 689 728 l 640 728 l 639 726 l 639 603 l 574 603 l 574 493 l 524 493 l 524 480 l 510 480 l 510 0 l 337 0 l 337 474 "},"E":{"x_min":50.1875,"x_max":760.28125,"ha":781,"o":"m 172 860 l 172 618 l 689 618 l 689 422 l 172 422 l 172 124 l 760 124 l 760 -6 l 52 -6 l 52 860 l 50 860 l 50 995 l 721 995 l 721 860 l 172 860 "},"Ô":{"x_min":50.1875,"x_max":1026.828125,"ha":1095,"o":"m 729 828 l 339 828 l 339 708 l 243 708 l 243 316 l 307 316 l 307 245 l 370 245 l 370 149 l 699 149 l 699 266 l 818 266 l 818 718 l 729 718 l 729 828 m 258 918 l 258 997 l 874 997 l 874 918 l 978 918 l 978 745 l 1026 745 l 1026 126 l 853 126 l 853 0 l 295 0 l 295 52 l 177 52 l 177 155 l 108 155 l 108 278 l 50 278 l 50 801 l 135 801 l 135 918 l 258 918 m 424 1153 l 424 1070 l 316 1070 l 316 1188 l 382 1188 l 382 1270 l 428 1270 l 428 1374 l 640 1374 l 640 1272 l 701 1272 l 701 1172 l 747 1172 l 747 1070 l 636 1070 l 636 1159 l 549 1159 l 549 1235 l 516 1235 l 516 1153 l 424 1153 "},"Ï":{"x_min":6.78125,"x_max":423.890625,"ha":446,"o":"m 118 0 l 118 999 l 316 999 l 316 0 l 118 0 m 187 1243 l 187 1052 l 6 1052 l 6 1243 l 187 1243 m 423 1243 l 423 1055 l 254 1055 l 254 1243 l 423 1243 "},"‹":{"x_min":117.328125,"x_max":383.203125,"ha":428,"o":"m 202 255 l 118 255 l 118 328 l 117 328 l 117 417 l 205 417 l 205 470 l 257 470 l 257 503 l 313 503 l 313 551 l 375 551 l 375 465 l 343 465 l 343 425 l 297 425 l 297 370 l 259 370 l 259 328 l 251 328 l 251 301 l 286 301 l 286 245 l 290 239 l 332 239 l 332 185 l 340 174 l 383 174 l 383 113 l 313 113 l 313 153 l 257 153 l 257 199 l 202 199 l 202 255 l 202 255 "},"±":{"x_min":54.265625,"x_max":657.875,"ha":688,"o":"m 58 0 l 58 147 l 622 147 l 622 0 l 58 0 m 258 687 l 258 859 l 449 859 l 449 687 l 657 687 l 657 474 l 449 474 l 449 241 l 258 241 l 258 474 l 54 474 l 54 687 l 258 687 "},"ì":{"x_min":-120.046875,"x_max":264.5,"ha":349,"o":"m 87 0 l 87 680 l 254 680 l 254 0 l 87 0 m -18 878 l -120 878 l -120 1018 l 78 1018 l 78 927 l 159 927 l 159 846 l 264 846 l 264 738 l 67 738 l 67 808 l -18 808 l -18 878 "},"|":{"x_min":271.96875,"x_max":411.6875,"ha":688,"o":"m 411 1077 l 411 -297 l 271 -297 l 271 1077 l 411 1077 "},"§":{"x_min":99.703125,"x_max":583.953125,"ha":688,"o":"m 239 240 l 344 240 l 344 235 l 425 235 l 425 270 l 462 270 l 462 385 l 419 385 l 419 482 l 309 482 l 309 477 l 239 477 l 239 240 m 443 991 l 443 996 l 516 996 l 516 797 l 443 797 l 443 872 l 215 872 l 215 671 l 339 671 l 339 657 l 562 657 l 562 518 l 583 518 l 583 385 l 573 385 l 573 146 l 462 146 l 462 68 l 573 68 l 573 -251 l 440 -251 l 440 -283 l 115 -283 l 115 -101 l 201 -101 l 201 -170 l 433 -170 l 433 41 l 339 41 l 339 52 l 225 52 l 225 124 l 110 124 l 110 493 l 185 493 l 185 588 l 99 588 l 99 923 l 158 923 l 158 991 l 443 991 "},"q":{"x_min":48.15625,"x_max":643.640625,"ha":695,"o":"m 242 531 l 242 121 l 446 121 l 446 533 l 244 533 q 242 531 242 532 m 643 680 l 643 -293 l 446 -293 l 446 -42 l 50 -42 l 50 50 l 48 50 l 48 680 l 643 680 "},"b":{"x_min":48.15625,"x_max":643.640625,"ha":675,"o":"m 449 153 l 449 576 l 245 576 l 245 151 l 447 151 q 449 153 448 152 m 48 0 l 48 997 l 245 997 l 245 740 l 641 740 l 641 645 l 643 645 l 643 0 l 48 0 "},"ﬂ":{"x_min":73.25,"x_max":648.375,"ha":733,"o":"m 285 845 l 285 716 l 375 716 l 375 578 l 285 578 l 285 0 l 144 0 l 144 578 l 73 578 l 73 716 l 144 716 l 144 924 l 183 924 l 183 999 l 425 999 l 425 863 l 306 863 l 306 845 l 285 845 m 648 997 l 648 0 l 503 0 l 503 997 l 648 997 "},"‱":{"x_min":99.015625,"x_max":1987.875,"ha":2073,"o":"m 470 977 l 470 592 l 101 592 l 101 977 l 470 977 m 332 264 l 332 137 l 214 137 l 214 264 l 330 264 l 330 391 l 446 391 l 446 517 l 554 517 l 554 644 l 666 644 l 666 765 l 777 765 l 777 889 l 887 889 l 887 978 l 1005 978 l 1005 851 l 895 851 l 895 762 l 784 762 l 784 638 l 672 638 l 672 517 l 564 517 l 564 390 l 448 390 l 448 264 l 332 264 m 217 135 l 217 8 l 99 8 l 99 135 l 217 135 m 1104 387 l 1104 3 l 736 3 l 736 387 l 1104 387 m 393 663 l 393 900 l 179 900 l 179 663 l 393 663 m 825 299 l 825 108 l 1024 108 l 1024 299 l 825 299 m 1555 387 l 1555 3 l 1187 3 l 1187 387 l 1555 387 m 1276 299 l 1276 108 l 1475 108 l 1475 299 l 1276 299 m 1987 384 l 1987 0 l 1619 0 l 1619 384 l 1987 384 m 1708 296 l 1708 105 l 1907 105 l 1907 296 l 1708 296 "},"®":{"x_min":54.9375,"x_max":1079.734375,"ha":1135,"o":"m 718 921 l 408 921 l 408 870 l 314 870 l 314 808 l 267 808 l 267 716 l 138 716 l 138 305 l 236 305 l 236 210 l 306 210 l 306 154 l 400 154 l 400 54 l 718 54 l 718 165 l 895 165 l 895 243 l 930 243 l 930 326 l 996 326 l 996 652 l 893 652 l 893 803 l 782 803 l 782 881 l 718 881 l 718 921 m 379 716 l 339 716 l 339 827 l 511 827 l 511 803 l 682 803 l 682 781 l 788 781 l 788 418 l 704 418 l 704 372 l 701 372 l 701 341 l 786 341 l 786 243 l 857 243 l 857 176 l 615 176 l 615 243 l 618 243 l 618 305 l 571 305 l 571 372 l 519 372 l 519 262 l 594 262 l 594 170 l 333 170 l 333 262 l 379 262 l 379 716 m 519 708 l 519 485 l 642 485 l 642 708 l 519 708 m 344 953 l 344 1004 l 839 1004 l 839 969 l 885 969 l 885 908 l 968 908 l 968 827 l 1024 827 l 1024 706 l 1079 706 l 1079 211 l 1027 211 l 1027 170 l 1001 170 l 1001 63 l 898 63 l 898 4 l 813 4 l 813 -27 l 318 -27 l 318 14 l 280 14 l 280 65 l 180 65 l 180 135 l 110 135 l 110 246 l 54 246 l 54 741 l 94 741 l 94 838 l 188 838 l 188 900 l 282 900 l 282 953 l 344 953 "},"₧":{"x_min":18.984375,"x_max":1342.875,"ha":1375,"o":"m 497 912 l 307 912 l 307 428 l 356 428 l 356 377 l 484 377 l 484 406 l 537 406 l 537 460 l 552 460 l 552 820 l 497 820 l 497 912 m 959 605 l 914 605 l 914 75 l 922 75 l 922 189 l 1007 189 l 1007 75 l 1218 75 l 1218 235 l 1062 235 l 1062 330 l 957 330 l 957 482 l 959 482 l 959 605 m 307 68 l 426 68 l 426 -14 l 18 -14 l 18 68 l 116 68 l 116 912 l 21 912 l 21 993 l 616 993 l 616 945 l 653 945 l 653 887 l 704 887 l 704 678 l 788 678 l 788 918 l 914 918 l 914 678 l 1295 678 l 1295 505 l 1203 505 l 1203 605 l 1053 605 l 1053 482 l 1138 482 l 1138 416 l 1253 416 l 1253 354 l 1342 354 l 1342 35 l 1274 35 l 1274 -16 l 887 -16 l 887 -2 l 788 -2 l 788 605 l 704 605 l 704 428 l 647 428 l 647 339 l 568 339 l 568 314 l 489 314 l 489 312 l 345 312 l 345 341 l 307 341 l 307 68 "},"L":{"x_min":52.21875,"x_max":718.234375,"ha":765,"o":"m 52 0 l 52 997 l 212 997 l 212 162 l 718 162 l 718 0 l 52 0 "},";":{"x_min":64.4375,"x_max":266.546875,"ha":378,"o":"m 266 666 l 266 461 l 72 461 l 72 666 l 266 666 m 263 202 l 263 -221 l 64 -221 l 64 202 l 263 202 "}," ":{"x_min":0,"x_max":0,"ha":345},"∑":{"x_min":68.5,"x_max":789.453125,"ha":818,"o":"m 291 -122 l 289 -125 l 289 -200 l 237 -200 l 237 -237 l 662 -237 q 666 -235 664 -236 l 655 -235 l 655 -187 l 708 -187 l 708 -116 l 782 -116 l 782 -191 l 749 -191 l 749 -235 l 727 -235 l 720 -250 l 720 -289 l 68 -289 l 68 -237 l 93 -237 l 93 -162 l 183 -162 l 183 -79 l 252 -79 l 252 -10 l 303 -10 l 303 43 l 366 43 l 366 108 l 408 108 l 408 189 l 482 189 l 482 272 l 552 272 l 552 324 l 486 324 l 486 447 l 385 447 l 385 552 l 268 552 l 268 666 l 196 666 l 196 780 l 124 780 l 124 912 l 70 912 l 70 978 l 789 978 l 789 809 l 674 809 l 674 912 l 366 912 l 366 832 l 367 830 l 478 830 l 478 716 l 566 716 l 566 612 l 649 612 l 649 489 l 731 489 l 731 324 l 704 324 l 704 243 l 641 243 l 641 162 l 543 162 l 543 70 l 464 70 l 464 23 l 437 23 l 437 -48 l 364 -48 l 364 -122 l 291 -122 "},"À":{"x_min":75.28125,"x_max":986.8125,"ha":1044,"o":"m 447 895 l 447 723 l 410 723 l 410 604 l 668 604 l 668 646 l 587 646 l 587 758 l 554 758 l 554 895 l 447 895 m 414 873 l 414 997 l 651 997 l 651 855 l 706 855 l 706 740 l 753 740 l 753 593 l 805 593 l 805 489 l 855 489 l 855 430 l 859 430 l 859 324 l 901 324 l 901 234 l 935 234 l 935 123 l 986 123 l 986 0 l 780 0 l 780 106 l 745 106 l 745 211 l 715 211 l 715 289 l 695 289 l 695 273 l 368 273 l 368 263 l 318 263 l 318 132 l 295 132 l 295 2 l 75 2 l 75 191 l 126 191 l 126 341 l 181 341 l 181 460 l 235 460 l 235 579 l 293 579 l 293 731 l 368 731 l 368 873 l 414 873 m 447 895 l 447 723 l 410 723 l 410 604 l 668 604 l 668 646 l 587 646 l 587 758 l 554 758 l 554 895 l 447 895 m 414 873 l 414 997 l 651 997 l 651 855 l 706 855 l 706 740 l 753 740 l 753 593 l 805 593 l 805 489 l 855 489 l 855 430 l 859 430 l 859 324 l 901 324 l 901 234 l 935 234 l 935 123 l 986 123 l 986 0 l 780 0 l 780 106 l 745 106 l 745 211 l 715 211 l 715 289 l 695 289 l 695 273 l 368 273 l 368 263 l 318 263 l 318 132 l 295 132 l 295 2 l 75 2 l 75 191 l 126 191 l 126 341 l 181 341 l 181 460 l 235 460 l 235 579 l 293 579 l 293 731 l 368 731 l 368 873 l 414 873 m 335 1184 l 233 1184 l 233 1324 l 432 1324 l 432 1233 l 513 1233 l 513 1152 l 618 1152 l 618 1044 l 421 1044 l 421 1114 l 335 1114 l 335 1184 "},"+":{"x_min":0,"x_max":685.6875,"ha":688,"o":"m 228 617 l 228 848 l 451 848 l 451 617 l 685 617 l 685 372 l 451 372 l 451 138 l 228 138 l 228 372 l 0 372 l 0 617 l 228 617 "},"½":{"x_min":60.359375,"x_max":1070.234375,"ha":1332,"o":"m 252 4 l 250 0 l 171 0 l 171 4 l 160 4 l 160 217 l 272 217 l 272 399 l 406 399 l 406 485 l 481 485 l 481 570 l 544 570 l 544 752 l 664 752 l 664 889 l 758 889 l 758 999 l 942 999 l 942 826 l 861 826 l 861 678 l 745 678 l 745 527 l 641 527 l 641 375 l 592 375 l 592 282 l 477 282 l 477 187 l 394 187 l 394 4 l 252 4 m 213 927 l 213 990 l 365 990 l 365 487 l 213 487 l 213 780 l 182 780 l 182 738 l 60 738 l 60 889 l 150 889 l 150 927 l 213 927 m 927 109 l 1058 109 l 1058 2 l 647 2 l 647 109 l 703 109 l 703 190 l 776 190 l 776 238 l 853 238 q 853 239 853 238 l 853 303 l 907 303 l 907 392 l 824 392 l 824 333 l 681 333 l 681 478 l 748 478 l 748 514 l 1064 514 l 1064 420 l 1070 420 l 1070 262 l 1005 262 l 1005 177 l 927 177 l 927 109 "},"Ë":{"x_min":50.1875,"x_max":760.28125,"ha":781,"o":"m 172 860 l 172 618 l 689 618 l 689 422 l 172 422 l 172 124 l 760 124 l 760 -6 l 52 -6 l 52 860 l 50 860 l 50 995 l 721 995 l 721 860 l 172 860 m 360 1243 l 360 1052 l 179 1052 l 179 1243 l 360 1243 m 596 1243 l 596 1055 l 427 1055 l 427 1243 l 596 1243 "},"'":{"x_min":16.28125,"x_max":220.421875,"ha":235,"o":"m 220 1106 l 220 716 l 16 716 l 16 1106 l 220 1106 "},"˛":{"x_min":241.453125,"x_max":535.125,"ha":695,"o":"m 480 -185 q 480 -183 480 -184 l 483 -185 l 535 -185 l 535 -289 l 241 -289 l 241 -104 l 276 -104 l 276 -37 l 335 -37 l 335 6 l 445 6 l 445 -70 l 368 -70 l 368 -133 l 347 -133 l 347 -185 l 480 -185 "},"ð":{"x_min":37.296875,"x_max":597.515625,"ha":773,"o":"m 406 373 l 200 373 l 200 133 l 406 133 l 406 373 m 547 391 l 597 391 l 597 99 l 543 99 l 543 -14 l 91 -14 l 91 25 l 37 25 l 37 444 l 60 444 l 60 505 l 316 505 l 316 560 l 309 560 l 309 535 l 254 535 l 254 512 l 155 512 l 155 602 l 276 602 l 276 607 l 200 607 l 200 680 l 349 680 l 349 639 l 352 639 l 352 651 l 406 651 l 406 676 l 480 676 l 480 609 l 410 609 l 410 588 l 474 588 l 474 505 l 547 505 l 547 391 "},"ı":{"x_min":2.03125,"x_max":337.078125,"ha":349,"o":"m 233 75 l 233 75 l 337 75 l 337 -10 l 18 -10 l 18 75 l 106 75 l 106 476 l 2 476 l 2 570 l 106 570 l 106 601 l 122 601 l 122 674 l 237 674 l 237 595 l 233 595 l 233 75 "},"₡":{"x_min":33.234375,"x_max":799.625,"ha":833,"o":"m 503 798 l 503 739 l 472 739 l 472 584 l 445 584 l 445 428 l 395 428 l 395 265 l 337 265 l 337 176 l 343 176 l 343 182 l 408 182 l 408 392 l 462 392 l 462 542 l 497 542 l 497 725 l 545 725 l 545 794 l 562 794 l 562 798 l 503 798 m 379 788 l 379 814 l 326 814 l 326 749 l 239 749 l 239 652 l 193 652 l 193 305 l 252 305 l 252 503 l 307 503 l 307 674 l 358 674 l 358 788 l 379 788 m 391 958 l 391 997 l 539 997 l 539 924 l 584 924 l 584 973 l 706 973 l 706 867 l 674 867 l 674 855 l 797 855 l 797 635 l 643 635 l 643 670 l 624 670 l 624 481 l 576 481 l 576 282 l 520 282 l 520 153 l 533 153 l 533 200 l 612 200 l 612 267 l 647 267 l 647 379 l 799 379 l 799 204 l 778 204 l 778 138 l 706 138 l 706 64 l 583 64 l 583 42 l 472 42 l 472 -6 l 343 -6 l 343 64 l 303 64 l 303 0 l 164 0 l 164 132 l 97 132 l 97 223 l 33 223 l 33 709 l 85 709 l 85 843 l 177 843 l 177 916 l 285 916 l 285 958 l 391 958 "},"ä":{"x_min":16.953125,"x_max":576.484375,"ha":625,"o":"m 50 0 l 50 81 l 23 81 l 23 379 l 118 379 l 118 411 l 252 411 l 252 452 l 400 452 l 400 529 l 182 529 q 181 527 181 528 l 181 452 l 16 452 l 16 610 l 93 610 l 93 678 l 552 678 l 552 583 l 576 583 l 576 0 l 400 0 l 400 8 l 322 8 l 322 0 l 50 0 m 396 171 q 400 178 398 174 l 400 285 l 254 285 l 254 244 l 174 244 l 174 141 l 309 141 l 309 171 l 396 171 m 286 937 l 286 746 l 106 746 l 106 937 l 286 937 m 523 937 l 523 749 l 354 749 l 354 937 l 523 937 "},"¹":{"x_min":68.5,"x_max":389.296875,"ha":688,"o":"m 230 772 l 230 974 l 158 974 l 158 939 l 68 939 l 68 1049 l 137 1049 l 137 1100 l 225 1100 l 225 1115 l 230 1115 l 230 1147 l 389 1147 l 389 772 l 230 772 "},"£":{"x_min":40.6875,"x_max":653.8125,"ha":688,"o":"m 282 450 l 282 442 l 314 442 l 314 232 l 311 232 l 311 95 l 473 95 l 473 198 l 637 198 l 637 -9 l 67 -9 l 67 95 l 120 95 l 120 246 l 161 246 l 161 410 l 113 410 l 113 450 l 40 450 l 40 515 l 113 515 l 113 585 l 99 585 l 99 886 l 164 886 l 164 956 l 250 956 l 250 991 l 526 991 l 526 986 l 653 986 l 653 830 l 505 830 l 505 910 l 336 910 l 336 859 l 277 859 l 277 611 l 282 611 l 282 515 l 500 515 l 500 450 l 282 450 "},"W":{"x_min":50.1875,"x_max":1270.3125,"ha":1377,"o":"m 135 795 l 50 795 l 50 997 l 276 997 l 276 830 l 312 830 l 312 674 l 341 674 l 341 472 l 385 472 l 385 211 l 406 211 l 406 337 l 443 337 l 443 444 l 447 444 l 447 613 l 501 613 l 501 726 l 539 726 l 539 839 l 570 839 l 570 988 l 795 988 l 795 839 l 816 839 l 816 728 l 864 728 l 864 601 l 904 601 l 904 427 l 957 427 l 957 202 l 970 202 l 970 353 l 996 353 l 996 587 l 1022 587 l 1022 809 l 1089 809 l 1089 986 l 1270 986 l 1270 769 l 1222 769 l 1222 565 l 1184 565 l 1184 331 l 1095 331 l 1095 165 l 1068 165 l 1068 0 l 832 0 l 832 191 l 793 191 l 793 409 l 751 409 l 751 583 l 710 583 l 710 722 l 657 722 l 657 581 l 622 581 l 622 430 l 597 430 l 597 300 l 560 300 l 560 129 l 495 129 l 495 0 l 287 0 l 287 191 l 216 191 l 216 446 l 183 446 l 183 623 l 135 623 l 135 795 "},"⅕":{"x_min":60.359375,"x_max":1068.203125,"ha":1151,"o":"m 252 4 l 249 0 l 171 0 l 171 4 l 160 4 l 160 217 l 271 217 l 271 399 l 406 399 l 406 485 l 481 485 l 481 570 l 543 570 l 543 752 l 663 752 l 663 889 l 758 889 l 758 999 l 941 999 l 941 826 l 860 826 l 860 678 l 744 678 l 744 527 l 640 527 l 640 375 l 591 375 l 591 282 l 477 282 l 477 187 l 394 187 l 394 4 l 252 4 m 697 459 l 697 467 l 1068 467 l 1068 366 l 797 366 l 797 236 l 1064 236 l 1064 137 l 1064 137 l 1064 0 l 697 0 l 697 54 l 989 54 l 989 137 l 695 137 l 695 459 l 697 459 m 213 927 l 213 990 l 365 990 l 365 487 l 213 487 l 213 780 l 182 780 l 182 738 l 60 738 l 60 889 l 150 889 l 150 927 l 213 927 "},"v":{"x_min":35.265625,"x_max":620.578125,"ha":673,"o":"m 353 214 q 356 223 354 218 l 356 347 l 395 347 l 395 464 l 435 464 l 435 630 l 501 630 q 501 632 501 631 l 501 680 l 620 680 l 620 531 l 591 531 l 591 389 l 545 389 l 545 233 l 507 233 l 507 168 l 464 168 l 464 0 l 206 0 l 206 168 l 108 168 l 108 333 l 81 333 l 81 497 l 35 497 l 35 678 l 204 678 l 204 556 l 262 556 l 262 420 l 309 420 l 309 214 l 353 214 "},">":{"x_min":29.15625,"x_max":629.390625,"ha":688,"o":"m 200 646 l 50 646 l 50 847 l 249 847 l 249 748 l 465 748 l 465 662 l 629 662 l 629 328 l 454 328 l 454 218 l 246 218 l 246 113 l 29 113 l 29 368 l 206 368 l 206 444 l 384 444 l 384 527 l 206 527 l 206 642 l 200 646 "},"û":{"x_min":35.265625,"x_max":718.234375,"ha":718,"o":"m 526 0 l 485 0 l 485 -2 l 35 -2 l 35 662 l 180 662 l 180 191 l 431 191 l 431 680 l 604 680 l 604 147 l 718 147 l 718 -2 l 526 -2 l 526 0 m 208 787 l 208 704 l 100 704 l 100 822 l 166 822 l 166 904 l 212 904 l 212 1008 l 424 1008 l 424 906 l 484 906 l 484 806 l 531 806 l 531 704 l 420 704 l 420 793 l 333 793 l 333 868 l 299 868 l 299 787 l 208 787 "},"ˉ":{"x_min":124.796875,"x_max":574.453125,"ha":695,"o":"m 574 939 l 574 766 l 124 766 l 124 939 l 574 939 "},"r":{"x_min":48.15625,"x_max":420.5,"ha":469,"o":"m 198 507 q 198 505 198 506 l 198 0 l 48 0 l 48 682 l 420 682 l 420 507 l 198 507 "},"₤":{"x_min":39.34375,"x_max":641.59375,"ha":688,"o":"m 237 554 l 505 554 l 505 484 l 270 484 l 270 470 l 516 470 l 516 404 l 316 404 l 316 155 l 268 155 l 268 75 l 507 75 l 507 110 l 541 110 l 541 137 l 589 137 l 589 164 l 641 164 l 641 112 l 618 112 l 618 52 l 591 52 l 591 -4 l 70 -4 l 70 75 l 97 75 l 97 256 l 158 256 l 158 404 l 56 404 l 56 470 l 133 470 l 133 484 l 39 484 l 39 554 l 97 554 l 97 766 l 112 766 l 112 937 l 210 937 l 210 976 l 312 976 l 312 990 l 507 990 l 507 1009 l 610 1009 l 610 818 l 507 818 l 507 912 l 324 912 l 324 853 l 264 853 l 264 712 l 237 712 l 237 554 "},"x":{"x_min":93.59375,"x_max":614.46875,"ha":685,"o":"m 479 603 l 480 604 l 480 680 l 614 680 l 614 448 l 514 448 l 514 331 l 439 331 l 439 276 l 501 276 l 501 177 l 594 177 l 594 0 l 419 0 l 419 88 l 339 88 l 339 85 l 276 85 l 276 0 l 93 0 l 93 166 l 191 166 q 193 169 192 167 l 193 268 l 240 268 l 240 331 l 176 331 l 176 484 l 99 484 l 99 680 l 255 680 l 255 600 l 320 600 l 320 481 l 384 481 l 384 603 l 479 603 "},"è":{"x_min":32.5625,"x_max":550.03125,"ha":617,"o":"m 225 522 l 225 433 l 400 433 l 400 522 l 225 522 m 225 133 l 550 133 l 550 0 l 58 0 l 58 72 l 56 72 l 56 678 l 225 678 l 225 676 l 543 676 l 543 324 l 400 324 l 400 326 l 225 326 l 225 133 m 134 876 l 32 876 l 32 1016 l 231 1016 l 231 925 l 311 925 l 311 844 l 417 844 l 417 736 l 220 736 l 220 806 l 134 806 l 134 876 "},"Ø":{"x_min":50.1875,"x_max":1060.0625,"ha":1095,"o":"m 177 111 l 177 155 l 108 155 l 108 278 l 50 278 l 50 801 l 135 801 l 135 918 l 258 918 l 258 997 l 755 997 l 755 1062 l 861 1062 l 861 1165 l 1060 1165 l 1060 992 l 959 992 l 959 918 l 978 918 l 978 745 l 1026 745 l 1026 126 l 853 126 l 853 0 l 295 0 l 295 52 l 252 52 l 252 -122 l 54 -122 l 54 111 l 177 111 m 818 686 l 773 686 l 773 546 l 631 546 l 631 347 l 515 347 l 515 158 l 388 158 l 388 149 l 699 149 l 699 266 l 818 266 l 818 686 m 252 316 l 252 405 l 388 405 l 388 621 l 518 621 l 518 775 l 690 775 l 690 828 l 339 828 l 339 708 l 243 708 l 243 316 l 252 316 "},"÷":{"x_min":35.265625,"x_max":651.765625,"ha":688,"o":"m 457 830 l 457 610 l 231 610 l 231 830 l 457 830 m 651 564 l 651 400 l 35 400 l 35 564 l 651 564 m 443 354 l 443 147 l 237 147 l 237 354 l 443 354 "},"h":{"x_min":66.46875,"x_max":722.3125,"ha":749,"o":"m 192 2 l 190 0 l 107 0 l 105 2 l 66 2 l 66 997 l 239 997 l 239 743 l 722 743 l 722 -2 l 520 -2 l 520 589 l 316 589 l 316 484 l 239 484 l 239 2 l 192 2 "},"⅘":{"x_min":54.265625,"x_max":1068.203125,"ha":1151,"o":"m 198 706 l 198 692 l 187 692 l 187 672 l 272 672 l 272 772 l 268 772 l 268 760 l 240 760 l 239 760 l 239 714 l 205 714 l 205 706 l 198 706 m 272 929 l 272 993 l 396 993 l 396 672 l 481 672 l 481 579 l 396 579 l 396 493 l 272 493 l 272 579 l 54 579 l 54 672 l 71 672 l 71 765 l 128 765 l 128 866 l 215 866 l 215 929 l 272 929 m 278 -4 l 274 -8 l 196 -8 l 196 -4 l 185 -4 l 185 208 l 297 208 l 297 391 l 431 391 l 431 477 l 506 477 l 506 562 l 569 562 l 569 744 l 689 744 l 689 881 l 784 881 l 784 991 l 966 991 l 966 818 l 885 818 l 885 670 l 769 670 l 769 519 l 666 519 l 666 366 l 616 366 l 616 274 l 502 274 l 502 179 l 419 179 l 419 -4 l 278 -4 m 697 459 l 697 467 l 1068 467 l 1068 366 l 797 366 l 797 236 l 1064 236 l 1064 137 l 1064 137 l 1064 0 l 697 0 l 697 54 l 989 54 l 989 137 l 695 137 l 695 459 l 697 459 "},".":{"x_min":83.421875,"x_max":280.109375,"ha":378,"o":"m 280 202 l 280 -4 l 83 -4 l 83 202 l 280 202 "},"f":{"x_min":4.0625,"x_max":356.0625,"ha":379,"o":"m 216 843 l 216 714 l 305 714 l 305 576 l 216 576 l 216 -2 l 75 -2 l 75 576 l 4 576 l 4 714 l 75 714 l 75 922 l 114 922 l 114 997 l 356 997 l 356 861 l 237 861 l 237 843 l 216 843 "},"“":{"x_min":118.6875,"x_max":539.1875,"ha":617,"o":"m 145 984 l 145 1091 l 291 1091 l 291 916 l 297 916 l 297 685 l 149 685 l 149 701 l 118 701 l 118 984 l 145 984 m 387 986 l 387 1093 l 533 1093 l 533 918 l 539 918 l 539 687 l 391 687 l 391 704 l 360 704 l 360 986 l 387 986 "},"A":{"x_min":75.28125,"x_max":986.8125,"ha":1044,"o":"m 447 895 l 447 723 l 410 723 l 410 604 l 668 604 l 668 646 l 587 646 l 587 758 l 554 758 l 554 895 l 447 895 m 414 873 l 414 997 l 651 997 l 651 855 l 706 855 l 706 740 l 753 740 l 753 593 l 805 593 l 805 489 l 855 489 l 855 430 l 859 430 l 859 324 l 901 324 l 901 234 l 935 234 l 935 123 l 986 123 l 986 0 l 780 0 l 780 106 l 745 106 l 745 211 l 715 211 l 715 289 l 695 289 l 695 273 l 368 273 l 368 263 l 318 263 l 318 132 l 295 132 l 295 2 l 75 2 l 75 191 l 126 191 l 126 341 l 181 341 l 181 460 l 235 460 l 235 579 l 293 579 l 293 731 l 368 731 l 368 873 l 414 873 "},"O":{"x_min":50.1875,"x_max":1026.828125,"ha":1095,"o":"m 729 828 l 339 828 l 339 708 l 243 708 l 243 316 l 307 316 l 307 245 l 370 245 l 370 149 l 699 149 l 699 266 l 818 266 l 818 718 l 729 718 l 729 828 m 258 918 l 258 997 l 874 997 l 874 918 l 978 918 l 978 745 l 1026 745 l 1026 126 l 853 126 l 853 0 l 295 0 l 295 52 l 177 52 l 177 155 l 108 155 l 108 278 l 50 278 l 50 801 l 135 801 l 135 918 l 258 918 "},"‘":{"x_min":118.6875,"x_max":297.734375,"ha":378,"o":"m 145 984 l 145 1091 l 291 1091 l 291 916 l 297 916 l 297 685 l 149 685 l 149 701 l 118 701 l 118 984 l 145 984 "},"Đ":{"x_min":2.03125,"x_max":1205.875,"ha":1245,"o":"m 252 578 l 252 843 l 249 843 l 249 999 l 1009 999 l 1009 937 l 1139 937 l 1139 810 l 1190 810 l 1190 648 l 1205 648 l 1205 130 l 1110 130 l 1110 81 l 1026 81 l 1026 27 l 922 27 l 922 4 l 252 4 l 252 439 l 2 439 l 2 578 l 252 578 m 460 578 l 764 578 l 764 439 l 460 439 l 460 117 l 693 117 l 693 179 l 926 179 l 926 281 l 1005 281 l 1005 604 l 945 604 l 945 766 l 816 766 l 816 866 l 460 866 l 460 578 "},"3":{"x_min":24.421875,"x_max":610.40625,"ha":688,"o":"m 341 547 l 341 619 l 422 619 l 422 881 l 213 881 q 212 876 212 878 l 212 843 l 177 843 l 177 964 l 187 964 q 201 970 192 967 l 201 999 l 514 999 l 514 926 l 578 926 l 578 593 l 486 593 l 486 525 l 610 525 l 610 39 l 511 39 l 511 -17 l 137 -17 l 137 -23 l 24 -23 l 24 160 l 137 160 l 137 68 l 425 68 q 427 71 426 70 l 427 469 q 422 474 425 472 l 341 474 l 341 516 l 335 516 l 335 547 l 341 547 "},"9":{"x_min":48.15625,"x_max":661.953125,"ha":688,"o":"m 446 856 l 191 856 l 191 579 l 446 579 l 446 856 m 184 -14 q 144 -16 164 -16 l 144 15 l 145 15 l 145 168 l 387 168 l 387 283 l 448 283 l 448 364 l 105 364 l 105 469 l 48 469 l 48 961 l 169 961 l 169 1009 l 564 1009 l 564 905 l 661 905 l 661 432 l 645 432 l 645 364 l 589 364 l 589 143 l 489 143 l 489 65 l 387 65 l 387 -14 l 184 -14 "},"l":{"x_min":31.875,"x_max":177.015625,"ha":273,"o":"m 177 997 l 177 0 l 31 0 l 31 997 l 177 997 "},"⅛":{"x_min":60.359375,"x_max":1070.234375,"ha":1151,"o":"m 252 4 l 250 0 l 171 0 l 171 4 l 160 4 l 160 217 l 272 217 l 272 399 l 406 399 l 406 485 l 481 485 l 481 570 l 544 570 l 544 752 l 664 752 l 664 889 l 758 889 l 758 999 l 942 999 l 942 826 l 861 826 l 861 678 l 745 678 l 745 527 l 641 527 l 641 375 l 592 375 l 592 282 l 477 282 l 477 187 l 394 187 l 394 4 l 252 4 m 213 927 l 213 990 l 365 990 l 365 487 l 213 487 l 213 780 l 182 780 l 182 738 l 60 738 l 60 889 l 150 889 l 150 927 l 213 927 m 892 318 l 892 240 l 993 240 l 993 318 l 892 318 m 892 153 l 892 65 l 993 65 l 993 153 l 892 153 m 756 413 l 1070 413 l 1070 -4 l 756 -4 l 756 413 "},"":{"x_min":73.25,"x_max":643.640625,"ha":728,"o":"m 285 845 l 285 716 l 375 716 l 375 578 l 285 578 l 285 0 l 144 0 l 144 578 l 73 578 l 73 716 l 144 716 l 144 924 l 183 924 l 183 999 l 425 999 l 425 863 l 306 863 l 306 845 l 285 845 m 643 933 l 643 746 l 478 746 l 478 933 l 643 933 m 476 2 l 476 682 l 643 682 l 643 2 l 476 2 "},"4":{"x_min":21.703125,"x_max":678.21875,"ha":688,"o":"m 505 84 l 629 84 l 629 -1 l 282 -1 l 282 84 l 411 84 l 411 232 l 21 232 l 21 321 l 61 321 l 61 432 l 131 432 l 131 520 l 188 520 l 188 638 l 261 638 l 261 746 l 320 746 l 320 878 l 411 878 l 411 975 l 505 975 l 505 321 l 597 321 l 597 402 l 678 402 l 678 305 l 629 305 l 629 232 l 505 232 l 505 84 m 411 321 l 411 676 l 355 676 l 355 569 l 280 569 l 280 437 l 212 437 l 212 366 l 155 366 l 155 321 l 411 321 "},"⅔":{"x_min":60.359375,"x_max":1068.203125,"ha":1151,"o":"m 301 3 l 298 0 l 225 0 l 225 3 l 215 3 l 215 197 l 319 197 l 319 364 l 444 364 l 444 442 l 513 442 l 513 519 l 572 519 l 572 685 l 683 685 l 683 810 l 771 810 l 771 911 l 941 911 l 941 754 l 866 754 l 866 618 l 758 618 l 758 480 l 661 480 l 661 341 l 616 341 l 616 257 l 510 257 l 510 170 l 433 170 l 433 3 l 301 3 m 320 630 l 441 630 l 441 533 l 60 533 l 60 630 l 111 630 l 111 704 l 179 704 l 179 748 l 251 748 l 251 807 l 301 807 l 301 889 l 224 889 l 224 834 l 91 834 l 91 966 l 153 966 l 153 999 l 447 999 l 447 914 l 453 914 l 453 770 l 392 770 l 392 692 l 320 692 l 320 630 m 1056 153 l 1068 153 l 1068 107 l 1056 107 l 1056 35 l 992 35 l 992 4 l 746 4 l 746 45 l 691 45 l 691 172 l 852 172 l 852 91 q 854 90 853 90 l 896 90 l 896 108 l 928 108 l 928 189 l 832 189 l 832 285 l 925 285 l 925 334 l 847 334 l 847 320 l 824 320 l 824 282 l 718 282 l 718 383 l 748 383 l 748 431 l 1058 431 l 1058 334 l 1056 334 l 1056 252 l 1001 252 l 1001 225 l 1056 225 l 1056 153 "},"Ü":{"x_min":58.328125,"x_max":949.515625,"ha":1018,"o":"m 254 283 l 753 283 l 753 997 l 949 997 l 949 0 l 58 0 l 58 995 l 60 995 l 60 997 l 254 997 l 254 283 m 495 1260 l 495 1069 l 314 1069 l 314 1260 l 495 1260 m 731 1260 l 731 1072 l 562 1072 l 562 1260 l 731 1260 "},"à":{"x_min":16.953125,"x_max":576.484375,"ha":625,"o":"m 50 0 l 50 81 l 23 81 l 23 379 l 118 379 l 118 411 l 252 411 l 252 452 l 400 452 l 400 529 l 182 529 q 181 527 181 528 l 181 452 l 16 452 l 16 610 l 93 610 l 93 678 l 552 678 l 552 583 l 576 583 l 576 0 l 400 0 l 400 8 l 322 8 l 322 0 l 50 0 m 396 171 q 400 178 398 174 l 400 285 l 254 285 l 254 244 l 174 244 l 174 141 l 309 141 l 309 171 l 396 171 m 215 851 l 113 851 l 113 991 l 311 991 l 311 900 l 392 900 l 392 819 l 497 819 l 497 711 l 301 711 l 301 781 l 215 781 l 215 851 "},"ó":{"x_min":18.984375,"x_max":641.59375,"ha":685,"o":"m 196 476 l 196 173 q 197 170 196 172 l 441 170 l 441 485 l 204 485 l 204 476 l 196 476 m 77 0 l 77 72 l 18 72 l 18 579 l 72 579 l 72 680 l 572 680 l 572 554 l 641 554 l 641 80 l 537 80 l 537 0 l 77 0 m 217 731 l 214 731 l 217 734 l 217 851 l 322 851 l 322 944 l 414 944 l 414 991 l 559 991 l 559 841 l 459 841 l 459 767 l 368 767 l 368 722 l 217 722 l 217 731 "},"₴":{"x_min":126.15625,"x_max":1208.59375,"ha":1342,"o":"m 383 751 l 383 835 l 402 835 l 402 908 l 440 908 l 440 973 l 585 973 l 585 993 l 802 993 l 802 950 l 927 950 l 927 803 l 971 803 l 971 751 l 1204 751 l 1204 709 l 971 709 l 971 644 l 1208 644 l 1208 590 l 971 590 l 971 560 l 912 560 l 912 477 l 771 477 l 771 457 l 687 457 l 687 430 l 627 430 l 627 343 l 525 343 l 525 193 l 569 193 l 569 147 l 725 147 l 725 192 l 808 192 l 808 370 l 983 370 l 983 88 l 902 88 l 902 7 l 752 7 l 752 -4 l 375 -4 l 375 153 l 342 153 l 342 376 l 373 376 l 373 501 l 481 501 l 481 560 l 573 560 l 573 578 l 696 578 l 696 590 l 126 590 l 126 644 l 808 644 l 808 709 l 496 709 l 496 671 l 383 671 l 383 709 l 130 709 l 130 751 l 383 751 m 788 751 l 788 837 l 633 837 l 633 792 l 541 792 l 541 751 l 788 751 "}}}
